<?xml version="1.0" encoding="UTF-8"?>
<svg version="1.1" xmlns="http://www.w3.org/2000/svg" width="3333" height="3333">
<path d="M0 0 C1099.89 0 2199.78 0 3333 0 C3333 1099.89 3333 2199.78 3333 3333 C2233.11 3333 1133.22 3333 0 3333 C0 2233.11 0 1133.22 0 0 Z " fill="#FEFEFE" transform="translate(0,0)"/>
<path d="M0 0 C5.91977966 1.68007102 11.14723416 4.51739475 16.5625 7.375 C17.58118164 7.9117334 18.59986328 8.4484668 19.64941406 9.00146484 C22.77224969 10.65675159 25.88791 12.32460567 29 14 C29.8873584 14.47759766 30.7747168 14.95519531 31.68896484 15.44726562 C42.82787036 21.49929729 53.51647001 28.16373474 64.0625 35.1875 C64.62191284 35.55941467 65.18132568 35.93132935 65.75769043 36.31451416 C73.7086528 41.61681695 81.41089149 47.19320848 89 53 C90.0350769 53.7892688 90.0350769 53.7892688 91.09106445 54.59448242 C97.89022444 59.80942609 104.48070074 65.1702645 110.79296875 70.97265625 C112.72829285 72.75041414 114.69403016 74.47576252 116.6875 76.1875 C128.46788379 86.49829869 139.54454284 97.34847351 150 109 C150.50595703 109.56122559 151.01191406 110.12245117 151.53320312 110.70068359 C171.70975309 133.22318947 188.47278836 158.54615874 203 185 C203.4326416 185.7748877 203.8652832 186.54977539 204.31103516 187.34814453 C232.40711879 237.76566534 247.11822806 295.75277707 252 353 C252.08685059 353.99990967 252.17370117 354.99981934 252.26318359 356.0300293 C253.16913994 367.78387769 253.24333783 379.5289218 253.25 391.3125 C253.25101212 392.93229263 253.25101212 392.93229263 253.25204468 394.58480835 C253.23333555 413.55218962 252.31158326 432.18001545 250 451 C249.91278687 451.72386902 249.82557373 452.44773804 249.73571777 453.19354248 C241.15561915 524.2480862 220.07353905 592.18809304 190 657 C189.53339966 658.00797638 189.53339966 658.00797638 189.05737305 659.03631592 C181.55791637 675.21650781 173.45699441 690.93894217 164.50537109 706.36816406 C162.59356166 709.71057498 160.76824377 713.09561522 158.9453125 716.48706055 C133.26782063 764.14330794 100.11991019 808.98907522 65.08300781 850.1652832 C62.19047838 853.57001037 59.36160095 857.01757422 56.5625 860.5 C52.18315122 865.88573414 47.49955162 870.94816799 42.765625 876.01953125 C40.67089076 878.26598689 38.62670331 880.54473428 36.625 882.875 C28.29249567 892.48786476 19.43950608 901.63518799 10.39453125 910.57421875 C7.66713323 913.33721088 5.13131726 916.22214543 2.60546875 919.16796875 C-1.133752 923.43486543 -5.17729294 927.33083396 -9.5 931 C-13.71537403 934.62258705 -17.59163561 938.55382508 -21.5 942.5 C-25.85526876 946.89291474 -30.19483177 951.21497192 -34.92578125 955.20703125 C-37.21115372 957.1825227 -39.41410114 959.23251902 -41.62109375 961.29467773 C-47.02926054 966.34766036 -52.54576072 971.15268324 -58.3203125 975.7890625 C-61.13253315 978.1093495 -63.81797263 980.53071134 -66.5 983 C-71.8296789 987.8936826 -77.36696488 992.46207844 -83 997 C-84.26506799 998.03294233 -85.5293428 999.06685658 -86.79296875 1000.1015625 C-94.45612188 1006.37006627 -102.17748335 1012.53410558 -110.06201172 1018.52294922 C-112.34006028 1020.25917923 -114.60935163 1022.00658855 -116.87890625 1023.75390625 C-127.04107053 1031.56151412 -137.29529037 1039.17711368 -147.82373047 1046.48291016 C-150.12157731 1048.08475223 -152.40729409 1049.70285901 -154.69140625 1051.32421875 C-167.24818021 1060.21734563 -180.05144447 1068.6893521 -193 1077 C-193.81291504 1077.52303711 -194.62583008 1078.04607422 -195.46337891 1078.58496094 C-277.29708025 1131.13495006 -365.37693617 1173.58141185 -457.76049805 1203.94238281 C-459.20883753 1204.41857138 -460.6571615 1204.89480714 -462.10546875 1205.37109375 C-462.80086258 1205.59953476 -463.49625641 1205.82797577 -464.21272278 1206.06333923 C-468.11192478 1207.35152516 -471.97656628 1208.70631936 -475.82421875 1210.140625 C-481.34367431 1212.17754841 -486.95083692 1213.76806132 -492.625 1215.3125 C-494.85818409 1215.92667924 -497.09125414 1216.54127327 -499.32421875 1217.15625 C-501.00717041 1217.61837891 -501.00717041 1217.61837891 -502.72412109 1218.08984375 C-505.72526011 1218.92366744 -508.71723578 1219.78276791 -511.70703125 1220.65625 C-541.37094687 1229.28091055 -571.42460594 1235.9366644 -601.8125 1241.4375 C-602.96615051 1241.64678131 -604.11980103 1241.85606262 -605.30841064 1242.07168579 C-619.83255937 1244.6916719 -634.37196538 1247.04100606 -649 1249 C-650.12543213 1249.15267334 -651.25086426 1249.30534668 -652.41040039 1249.46264648 C-665.53174395 1251.19976948 -678.69069417 1252.48455914 -691.875 1253.625 C-692.9453952 1253.71865845 -692.9453952 1253.71865845 -694.03741455 1253.81420898 C-699.02235924 1254.24702019 -704.00931469 1254.63948842 -709 1255 C-709.67066498 1255.0495282 -710.34132996 1255.0990564 -711.03231812 1255.15008545 C-728.34098195 1256.37912452 -745.71827209 1256.33698123 -763.0625 1256.375 C-763.88371967 1256.37685932 -764.70493935 1256.37871864 -765.55104446 1256.38063431 C-824.80202493 1256.47888717 -885.10657257 1251.66744995 -942.23828125 1235.05859375 C-946.139193 1233.96082938 -950.05570955 1232.94825441 -953.98168945 1231.94482422 C-966.95540201 1228.6207591 -979.89387336 1225.26134057 -992.2734375 1220.0859375 C-995.83088401 1218.66907485 -999.44363225 1217.43726279 -1003.0625 1216.1875 C-1009.19268915 1214.05418594 -1015.24290785 1211.77176177 -1021.25 1209.3125 C-1021.95261963 1209.02721436 -1022.65523926 1208.74192871 -1023.37915039 1208.44799805 C-1026.15505818 1207.29605864 -1028.79935289 1206.12390956 -1031.359375 1204.54296875 C-1033.78339564 1203.12656616 -1036.06609445 1202.13932726 -1038.67578125 1201.125 C-1044.00856445 1199.04603468 -1049.08594269 1196.58803061 -1054.1875 1194 C-1055.03763672 1193.57460937 -1055.88777344 1193.14921875 -1056.76367188 1192.7109375 C-1061.59941651 1190.27626143 -1066.31691418 1187.71544727 -1071 1185 C-1072.41564133 1184.21819259 -1073.83238442 1183.43837811 -1075.25 1182.66015625 C-1090.07109205 1174.4377103 -1104.46900183 1165.44097705 -1118.11669922 1155.38671875 C-1119.48560985 1154.37875759 -1120.86348204 1153.3829322 -1122.24658203 1152.39453125 C-1122.98118652 1151.86214844 -1123.71579102 1151.32976562 -1124.47265625 1150.78125 C-1125.1469165 1150.29720703 -1125.82117676 1149.81316406 -1126.51586914 1149.31445312 C-1127.00563232 1148.88068359 -1127.49539551 1148.44691406 -1128 1148 C-1128 1147.34 -1128 1146.68 -1128 1146 C-1128.58845703 1145.88769043 -1129.17691406 1145.77538086 -1129.78320312 1145.65966797 C-1132.2067233 1144.93848388 -1133.52205823 1144.04000123 -1135.46875 1142.4453125 C-1136.11650391 1141.91824707 -1136.76425781 1141.39118164 -1137.43164062 1140.84814453 C-1138.11419922 1140.27950684 -1138.79675781 1139.71086914 -1139.5 1139.125 C-1140.20833984 1138.54218262 -1140.91667969 1137.95936523 -1141.64648438 1137.35888672 C-1146.97041113 1132.94348399 -1152.11291604 1128.36464642 -1157.15625 1123.6328125 C-1159.33510348 1121.61557727 -1161.53724356 1119.66404519 -1163.78515625 1117.7265625 C-1168.35092317 1113.74700687 -1172.65793318 1109.53367257 -1176.9375 1105.25 C-1177.72874268 1104.45867676 -1178.51998535 1103.66735352 -1179.33520508 1102.85205078 C-1184.18504513 1097.9547074 -1188.76354332 1093.01188511 -1192.98046875 1087.5546875 C-1194.72099948 1085.35293296 -1196.51765828 1083.25469327 -1198.375 1081.15234375 C-1207.96800121 1070.24629494 -1216.24839725 1058.37125144 -1224.3125 1046.3125 C-1224.68645905 1045.75589691 -1225.06041809 1045.19929382 -1225.44570923 1044.62582397 C-1233.01860369 1033.3275792 -1240.22568009 1021.86844656 -1245.25 1009.1875 C-1245.87930016 1007.63895354 -1246.50950608 1006.09077485 -1247.140625 1004.54296875 C-1247.44645508 1003.78516113 -1247.75228516 1003.02735352 -1248.06738281 1002.24658203 C-1248.97620781 1000.05731302 -1249.94798281 997.9077061 -1250.9375 995.75390625 C-1253.56485223 989.88178674 -1255.65364347 983.8279582 -1257.75 977.75 C-1258.07281952 976.81590805 -1258.07281952 976.81590805 -1258.40216064 975.86294556 C-1262.918261 962.73822384 -1266.68776281 949.45939003 -1270.20410156 936.03125 C-1270.86727462 933.5054964 -1271.54847916 930.98622106 -1272.2421875 928.46875 C-1275.35183965 916.80152796 -1277.22305175 904.93215631 -1279 893 C-1279.17563477 891.8248584 -1279.35126953 890.6497168 -1279.53222656 889.43896484 C-1287.66786596 833.84050719 -1288.00449644 775.79081364 -1278.39160156 720.38085938 C-1277.97486835 717.84720456 -1277.6198686 715.309815 -1277.2734375 712.765625 C-1275.31845465 698.8612717 -1272.36017782 685.27853174 -1269.125 671.625 C-1268.8148848 670.30373611 -1268.8148848 670.30373611 -1268.49850464 668.95578003 C-1265.8857533 657.87671814 -1262.88423152 647.00794591 -1259.34594727 636.18798828 C-1258.05665281 632.23599323 -1256.92073079 628.25647094 -1255.8125 624.25 C-1253.40175808 615.82440161 -1250.47941136 607.57276694 -1247.5625 599.3125 C-1247.33333893 598.65922729 -1247.10417786 598.00595459 -1246.86807251 597.33288574 C-1243.92941884 588.97513366 -1240.72101359 580.81417029 -1237.11694336 572.71948242 C-1235.87335911 570.18164774 -1235.87335911 570.18164774 -1236 568 C-1238.35046056 572.67600593 -1240.69817021 577.35337941 -1243.04345703 582.03198242 C-1243.83992214 583.6199166 -1244.63710811 585.20748945 -1245.43505859 586.79467773 C-1251.46903227 598.77844614 -1251.46903227 598.77844614 -1257 611 C-1258.10870665 607.67388005 -1257.97276019 607.24048898 -1256.7421875 604.15625 C-1256.44900635 603.41068848 -1256.1558252 602.66512695 -1255.85375977 601.89697266 C-1255.36927368 600.71047119 -1255.36927368 600.71047119 -1254.875 599.5 C-1254.54878662 598.68192871 -1254.22257324 597.86385742 -1253.88647461 597.02099609 C-1251.85746206 591.97618074 -1249.68741203 587.01913844 -1247.375 582.09765625 C-1245.46953272 577.80494162 -1243.77936581 573.43339772 -1242.0625 569.0625 C-1239.43629256 562.39583109 -1236.67184259 555.94581076 -1233.32421875 549.60546875 C-1232.08006524 547.15753249 -1231.00238552 544.67299566 -1229.93530273 542.14428711 C-1227.80890007 537.26926895 -1225.48014753 532.48586638 -1223.1875 527.6875 C-1222.42469727 526.07198242 -1222.42469727 526.07198242 -1221.64648438 524.42382812 C-1218.80744071 518.48306629 -1215.8002023 512.76895029 -1212.31469727 507.1809082 C-1211.00079388 505.00131694 -1209.85882483 502.78972985 -1208.75 500.5 C-1191.88977701 466.07704472 -1169.73071316 433.93222388 -1147.3671875 402.90283203 C-1145.87356008 400.82402273 -1144.38979897 398.73835611 -1142.90625 396.65234375 C-1135.90580153 386.84269119 -1128.63356936 377.32533338 -1121 368 C-1121 371.24875362 -1121.36157342 371.91832741 -1123.08984375 374.51953125 C-1123.53956543 375.20418457 -1123.98928711 375.88883789 -1124.45263672 376.59423828 C-1124.9426416 377.32626465 -1125.43264648 378.05829102 -1125.9375 378.8125 C-1126.9596469 380.36848204 -1127.98178218 381.92447171 -1129.00390625 383.48046875 C-1130.39847326 385.58706145 -1131.79516253 387.69219968 -1133.19482422 389.79541016 C-1148.20645823 412.40427167 -1160.40505934 436.77962095 -1172.5625 461 C-1173.06338135 461.99700928 -1173.5642627 462.99401855 -1174.08032227 464.02124023 C-1176.54396866 468.95994074 -1178.87680967 473.90325994 -1181 479 C-1181.90430794 481.09012076 -1182.80934768 483.17992495 -1183.71484375 485.26953125 C-1214.02385193 555.9005142 -1233.28758844 631.18457034 -1233.1875 708.375 C-1233.18689575 709.24539917 -1233.1862915 710.11579834 -1233.18566895 711.01257324 C-1233.07142875 772.04748472 -1220.60808362 832.56720968 -1192.9375 887.1875 C-1192.27994792 888.49348958 -1191.62239583 889.79947917 -1190.96484375 891.10546875 C-1190.64241699 891.74323242 -1190.31999023 892.38099609 -1189.98779297 893.03808594 C-1188.96375494 895.07198847 -1187.95285177 897.11215482 -1186.94140625 899.15234375 C-1174.85667458 923.30713759 -1158.00399227 945.95897066 -1140 966 C-1139.53980469 966.5165918 -1139.07960938 967.03318359 -1138.60546875 967.56542969 C-1127.14647148 980.38820903 -1115.2101319 993.32870633 -1101.63671875 1003.9296875 C-1099.08749115 1005.93130324 -1096.62993278 1008.00845912 -1094.17431641 1010.12231445 C-1088.00912535 1015.42538562 -1081.66056543 1020.32556703 -1075 1025 C-1074.2265625 1025.55945312 -1073.453125 1026.11890625 -1072.65625 1026.6953125 C-1065.01151251 1032.17404104 -1057.01580282 1037.08906656 -1049 1042 C-1048.29456055 1042.43231934 -1047.58912109 1042.86463867 -1046.86230469 1043.31005859 C-1044.80701452 1044.56585888 -1042.74825292 1045.81568762 -1040.6875 1047.0625 C-1040.05948486 1047.4445459 -1039.43146973 1047.8265918 -1038.78442383 1048.22021484 C-1036.2040732 1049.77034423 -1033.86698697 1051.04433768 -1031 1052 C-1031 1052.66 -1031 1053.32 -1031 1054 C-1030.15824219 1054.25652344 -1029.31648438 1054.51304688 -1028.44921875 1054.77734375 C-1024.73598545 1056.09358613 -1021.3045977 1057.76099308 -1017.8125 1059.5625 C-998.96529209 1069.1767266 -998.96529209 1069.1767266 -979.2734375 1076.83203125 C-976.74842942 1077.73295895 -974.41389573 1078.70487684 -971.98828125 1079.82421875 C-965.75058879 1082.64100865 -959.28369809 1084.78819744 -952.8125 1087 C-951.58724609 1087.42539063 -950.36199219 1087.85078125 -949.09960938 1088.2890625 C-936.23141268 1092.71186917 -923.17696317 1096.30308057 -909.98608398 1099.60986328 C-907.93383584 1100.12592139 -905.88395854 1100.65077298 -903.83398438 1101.17578125 C-896.58732188 1103.00863991 -889.39026209 1104.53948989 -881.96704102 1105.50341797 C-879 1106 -879 1106 -875.61694336 1106.97900391 C-871.8281729 1108.04850361 -868.07812189 1108.68981835 -864.1875 1109.21875 C-863.45611816 1109.32215698 -862.72473633 1109.42556396 -861.97119141 1109.53210449 C-859.64808294 1109.85937073 -857.32408543 1110.17975392 -855 1110.5 C-853.47259407 1110.71440122 -851.94524974 1110.9292418 -850.41796875 1111.14453125 C-847.37725219 1111.57233628 -844.33555665 1111.99197489 -841.29296875 1112.40625 C-838.70754362 1112.75924793 -836.13011648 1113.13397979 -833.55078125 1113.53125 C-807.54787903 1117.39695439 -781.30629544 1117.29677519 -755.08953857 1117.19561768 C-751.53636049 1117.18474168 -747.9832198 1117.18520109 -744.43002796 1117.18560791 C-721.02858279 1117.18506907 -697.89634752 1116.63514488 -674.59057617 1114.38037109 C-671.93539641 1114.12479752 -669.27934164 1113.8803976 -666.62304688 1113.63671875 C-655.71536966 1112.61075347 -644.94521783 1111.14823367 -634.13980103 1109.34936523 C-630.95024169 1108.828606 -627.75327713 1108.36393728 -624.5546875 1107.90234375 C-623.43835937 1107.74056641 -622.32203125 1107.57878906 -621.171875 1107.41210938 C-618.93513737 1107.09011456 -616.69814876 1106.76985929 -614.4609375 1106.45117188 C-609.09530358 1105.67077302 -603.80518312 1104.80972197 -598.52587891 1103.57397461 C-595.2624174 1102.83239351 -591.98434966 1102.17804478 -588.703125 1101.51953125 C-565.74151656 1096.89679111 -542.75766429 1092.17736264 -520.34375 1085.3046875 C-515.91736633 1083.95358658 -511.45605199 1082.73903669 -506.99291992 1081.51586914 C-495.44367916 1078.34315367 -484.07766759 1074.82311563 -472.75097656 1070.93554688 C-469.74345749 1069.91275551 -466.72833669 1068.91512901 -463.7109375 1067.921875 C-462.11294312 1067.39484985 -462.11294312 1067.39484985 -460.48266602 1066.85717773 C-458.43687031 1066.18301833 -456.39052227 1065.51053163 -454.34350586 1064.84008789 C-449.11270614 1063.10781877 -443.98032389 1061.24081074 -438.87915039 1059.15893555 C-435.30171017 1057.71891954 -431.70036776 1056.34387538 -428.09765625 1054.96875 C-410.54813789 1048.24942137 -393.20833299 1041.28000813 -376.12548828 1033.43261719 C-373.07863845 1032.03604518 -370.02306612 1030.66052056 -366.96484375 1029.2890625 C-339.52586225 1016.90257305 -312.36382315 1003.55711879 -286.36425781 988.36572266 C-283.33641011 986.61667474 -280.27201957 984.93990582 -277.20239258 983.265625 C-251.26103272 969.09435558 -226.16736835 953.00689583 -202 936 C-200.59251815 935.01552458 -199.18496367 934.03115299 -197.77734375 933.046875 C-172.84914848 915.57352567 -148.24506094 897.40871863 -125.09375 877.625 C-122.2044868 875.16084036 -119.26481542 872.76339 -116.3125 870.375 C-111.86096192 866.75165505 -107.57617545 862.98036128 -103.33203125 859.1171875 C-101.24176111 857.21948831 -99.13013885 855.35266585 -97 853.5 C-92.28445961 849.38684401 -87.63644157 845.20194893 -83 841 C-82.1325415 840.21939209 -81.26508301 839.43878418 -80.37133789 838.63452148 C-70.58276801 829.72480408 -61.23395115 820.38599023 -51.88671875 811.01708984 C-49.11311638 808.23809327 -46.33416319 805.46452717 -43.5546875 802.69140625 C-41.76790819 800.90396663 -39.98143885 799.1162171 -38.1953125 797.328125 C-37.37539825 796.51023499 -36.55548401 795.69234497 -35.71072388 794.84967041 C-31.48202574 790.60384716 -27.40014557 786.28892946 -23.50018311 781.73829651 C-21.12070609 778.98114202 -18.61614763 776.34332737 -16.125 773.6875 C-11.68534707 768.91589105 -7.48340859 764.0183201 -3.40234375 758.93359375 C-0.55038425 755.45095703 2.40842125 752.07238707 5.375 748.6875 C10.98396732 742.26069336 16.31176629 735.66420436 21.51953125 728.91015625 C23.12634837 726.8369806 24.74946191 724.77727566 26.375 722.71875 C33.70010313 713.41897469 40.70302458 703.95781912 47.44628906 694.22900391 C49.07234834 691.89620673 50.7176379 689.57795739 52.3671875 687.26171875 C64.37298237 670.35676602 75.55407041 652.91107624 86 635 C86.64388672 633.89930176 86.64388672 633.89930176 87.30078125 632.77636719 C131.07284957 557.71651765 162.31695879 476.58672084 173.75 390.125 C173.91063934 388.91290863 173.91063934 388.91290863 174.07452393 387.67633057 C186.67922863 291.74609204 167.99151941 189.64311359 101.08984375 93.125 C83.19913118 69.87025706 63.03032864 48.22567037 40 30 C38.8852126 29.08386091 37.77202537 28.1657724 36.66015625 27.24609375 C26.2921246 18.72648423 15.36471034 11.07702205 4.10986328 3.7734375 C2.72470924 2.87189153 1.35954631 1.93971841 0 1 C0 0.67 0 0.34 0 0 Z " fill="#D2326C" transform="translate(2170,1076)"/>
<path d="M0 0 C0.61069336 0.25700684 1.22138672 0.51401367 1.85058594 0.77880859 C14.98549105 6.49070406 25.6700753 15.23352574 36 25 C36.74894531 25.69609375 37.49789063 26.3921875 38.26953125 27.109375 C53.65614588 41.87621356 64.76211172 60.94186951 74 80 C74.39638672 80.78536133 74.79277344 81.57072266 75.20117188 82.37988281 C83.19940381 98.57470283 84.81048958 114.81828387 86.26811218 132.51791382 C87.25148278 144.34684533 88.57717839 156.13971515 89.875 167.9375 C90.00323151 169.11066772 90.13146301 170.28383545 90.26358032 171.49255371 C94.63812628 211.48272969 100.11564301 251.20052722 106.50463867 290.91687012 C113.45413976 334.17057856 119.42392874 377.32495141 123 421 C123.07389954 421.89867798 123.14779907 422.79735596 123.22393799 423.7232666 C127.22080024 472.7081946 130.26138735 523.19049575 123 572 C122.86223145 572.95648437 122.72446289 573.91296875 122.58251953 574.8984375 C119.83284622 593.46270584 115.80305235 616.36728399 102 630.0625 C99.51952496 632.70629489 99.51952496 632.70629489 99.0324707 636.16333008 C99.22413818 636.94087646 99.41580566 637.71842285 99.61328125 638.51953125 C99.8242041 639.4014917 100.03512695 640.28345215 100.25244141 641.19213867 C100.49913574 642.11873291 100.74583008 643.04532715 101 644 C101.2376709 644.91305908 101.4753418 645.82611816 101.72021484 646.7668457 C102.51442201 649.72816215 103.34564963 652.67688586 104.1875 655.625 C104.49284668 656.70458984 104.79819336 657.78417969 105.11279297 658.89648438 C108.095498 669.41002325 111.1508399 679.90242405 114.23291016 690.38720703 C114.89163575 692.63089937 115.54668544 694.87559501 116.19921875 697.12109375 C118.20893721 704.01054968 120.26487943 710.88462214 122.35546875 717.75 C122.56858704 718.45016739 122.78170532 719.15033478 123.00128174 719.87171936 C123.21822693 720.58444504 123.43517212 721.29717072 123.65869141 722.03149414 C123.87906067 722.75547394 124.09942993 723.47945374 124.32647705 724.22537231 C124.7762328 725.70255604 125.22622545 727.17966766 125.67645264 728.65670776 C128.03830976 736.41037545 130.36778822 744.162223 132.4375 752 C134.99074624 761.52410548 138.21699337 770.8361921 141.36572266 780.17553711 C144.06954268 788.19864256 146.73722375 796.23121423 149.3359375 804.2890625 C149.61887161 805.16619904 149.90180573 806.04333557 150.1933136 806.947052 C150.62174812 808.27529495 150.62174812 808.27529495 151.05883789 809.63037109 C161.95777367 843.41330048 173.79960444 876.82669731 186.17724609 910.09375 C187.72956893 914.26783168 189.27246923 918.44533214 190.81278992 922.62385559 C203.52828363 957.11109098 216.51459793 991.52022146 230.53955078 1025.49926758 C234.27636346 1034.57685254 237.70075858 1043.75536788 241 1053 C235.77121807 1055.04046479 230.6245591 1056.74519919 225.17578125 1058.078125 C224.11184395 1058.34166779 224.11184395 1058.34166779 223.02641296 1058.61053467 C221.54225799 1058.97604688 220.05745032 1059.33891842 218.57202148 1059.69921875 C216.30486347 1060.25186148 214.04221884 1060.82091782 211.77929688 1061.390625 C210.32837149 1061.74580012 208.87720728 1062.10000133 207.42578125 1062.453125 C206.41938347 1062.70923553 206.41938347 1062.70923553 205.39265442 1062.97052002 C198.54767434 1064.5947802 198.54767434 1064.5947802 195 1063 C193.56908026 1060.74348998 192.56317903 1058.78851582 191.546875 1056.3515625 C191.24561707 1055.67245819 190.94435913 1054.99335388 190.63397217 1054.29367065 C189.655278 1052.0779572 188.70301145 1049.85186454 187.75 1047.625 C187.07565459 1046.08827525 186.39921283 1044.55246876 185.72070312 1043.01757812 C184.3909618 1040.00716483 183.0686581 1036.99367506 181.75195312 1033.97753906 C179.76261824 1029.43848952 177.66038174 1024.95990492 175.5 1020.5 C170.85536637 1010.81138522 166.43758864 1001.01967362 162.00439453 991.2331543 C161.34802011 989.78432508 160.69160699 988.33551339 160.03515625 986.88671875 C159.70515625 986.15837326 159.37515625 985.43002777 159.03515625 984.67961121 C156.68341436 979.49410157 154.31325746 974.31728027 151.93359375 969.14453125 C143.92087183 951.71895423 136.10997104 934.22583705 128.55029297 916.59912109 C127.03767602 913.08746769 125.5084652 909.58359632 123.97265625 906.08203125 C100.48163178 852.45390525 79.36051938 797.88083032 59 743 C58.72389893 742.25657349 58.44779785 741.51314697 58.16333008 740.74719238 C51.07677879 721.66397855 44.21164051 702.50157246 37.38345337 683.32467651 C36.78605353 681.64974012 36.18621664 679.97567077 35.58383179 678.30252075 C34.12741813 674.24372334 32.72352519 670.17912598 31.41723633 666.06933594 C31.16190628 665.28770584 30.90657623 664.50607574 30.64350891 663.70075989 C30.16734379 662.23649079 29.70736557 660.76681301 29.26725769 659.29130554 C28.10812436 655.77652553 27.2471624 654.17208103 24.17260742 652.03149414 C21.29506668 650.81449383 21.29506668 650.81449383 18.14453125 649.9375 C-10.892687 641.28044114 -31.14682816 602.66461349 -44.55908203 578.15039062 C-48.15059524 571.4893931 -51.60797888 564.76450163 -55 558 C-55.46647949 557.07106934 -55.93295898 556.14213867 -56.41357422 555.18505859 C-68.37614622 531.18873374 -77.93820486 506.21092052 -87 481 C-87.39115997 479.91383392 -87.39115997 479.91383392 -87.79022217 478.8057251 C-89.52293421 473.99144741 -91.24465881 469.17339272 -92.9553833 464.35125732 C-93.51488681 462.77561926 -94.0761286 461.20059706 -94.63934326 459.62628174 C-98.37160932 449.17712171 -101.60691683 438.67742514 -104.46972656 427.95762634 C-105.27582117 424.98174271 -106.13779235 422.02252535 -107 419.0625 C-109.47717204 410.41221523 -111.75375042 401.71258083 -114 393 C-114.24008789 392.07364746 -114.48017578 391.14729492 -114.72753906 390.19287109 C-119.88922448 370.20900559 -124.32519054 350.13166995 -127.55810547 329.74365234 C-128.73216819 322.454085 -129.97701906 315.17569128 -131.19921875 307.89404297 C-131.40289063 306.67475098 -131.6065625 305.45545898 -131.81640625 304.19921875 C-131.99631104 303.12502686 -132.17621582 302.05083496 -132.36157227 300.9440918 C-134.20260425 289.57052711 -135.79413345 278.17911796 -137.2421875 266.75 C-137.45389913 265.08601254 -137.66566183 263.42203157 -137.87747192 261.75805664 C-138.32074724 258.27196451 -138.76261449 254.78569721 -139.20361328 251.29931641 C-139.6452723 247.80910363 -140.08925755 244.31920104 -140.53564453 240.82958984 C-142.06240467 228.89102129 -143.55265033 216.94846092 -145 205 C-145.10397598 204.14595581 -145.20795197 203.29191162 -145.31507874 202.4119873 C-145.93079585 197.34305346 -146.53045735 192.27263662 -147.10837173 187.19924927 C-147.28771312 185.6395578 -147.47123812 184.08034017 -147.65948105 182.521698 C-153.49264599 133.99624619 -129.61844023 83.29185263 -100.4921875 45.71875 C-98.3782867 43.09662914 -96.21659427 40.53561812 -94 38 C-93.32066406 37.21109375 -92.64132812 36.4221875 -91.94140625 35.609375 C-89.67219642 33.02788859 -87.3499352 30.50827693 -85 28 C-84.50935059 27.47003418 -84.01870117 26.94006836 -83.51318359 26.39404297 C-60.86791082 2.11293169 -32.96940549 -13.88595822 0 0 Z " fill="#D1316B" transform="translate(1412,594)"/>
<path d="M0 0 C1.14508972 3.43526917 0.92567571 3.80289298 -0.484375 6.9453125 C-0.83701416 7.75774414 -1.18965332 8.57017578 -1.55297852 9.40722656 C-2.14550415 10.75252441 -2.14550415 10.75252441 -2.75 12.125 C-8.56829935 25.83501217 -13.16924674 39.9039046 -17.73046875 54.06884766 C-18.84342349 57.52479355 -19.98293184 60.97152648 -21.125 64.41796875 C-30.69286451 93.80599967 -37.34156152 124.14318686 -41.53344727 154.74243164 C-41.97658273 157.83649574 -42.48921432 160.90950858 -43.02734375 163.98828125 C-51.98994702 216.87026886 -49.90361645 273.11828004 -42 326 C-41.74814941 327.69116943 -41.74814941 327.69116943 -41.49121094 329.41650391 C-39.74453319 340.93398074 -37.76745216 352.3085711 -34.671875 363.54833984 C-33.84785088 366.5551895 -33.05046867 369.56882636 -32.25 372.58203125 C-29.03603145 384.5662528 -25.66203197 396.47311512 -21.75 408.25 C-21.27481934 409.68472656 -21.27481934 409.68472656 -20.79003906 411.1484375 C-19.0660689 416.22808934 -17.12800168 421.12510631 -14.89746094 426.00292969 C-13.71952746 428.62412007 -12.73300629 431.30040064 -11.75 434 C-9.42759724 440.13315652 -6.7027082 446.00964723 -3.86767578 451.91650391 C-2.13979151 455.52950095 -0.51015442 459.1134195 0.875 462.875 C5.72320341 475.45878129 13.01062139 487.51102142 20 499 C20.3496582 499.57717773 20.69931641 500.15435547 21.05957031 500.74902344 C35.48616422 524.47909578 51.71035959 547.08874165 70 568 C70.63035156 568.72960938 71.26070312 569.45921875 71.91015625 570.2109375 C73.59429109 572.15210431 75.29312494 574.07880879 77 576 C77.71929688 576.81210938 78.43859375 577.62421875 79.1796875 578.4609375 C83.13296365 582.89339864 87.14779104 587.20021623 91.390625 591.35546875 C93.00450865 593.00460714 94.46968549 594.7204722 95.9375 596.5 C98.64905242 599.7280386 101.65547661 602.39208109 104.86328125 605.1171875 C107.17748257 607.15639232 109.33595677 609.30243458 111.5 611.5 C115.50731049 615.54820141 119.66110465 619.31306302 124 623 C124.92167969 623.79921875 125.84335938 624.5984375 126.79296875 625.421875 C135.57424385 632.99757574 144.7204098 640.0482116 154 647 C154.78246094 647.58749023 155.56492187 648.17498047 156.37109375 648.78027344 C166.70403467 656.52160559 177.14324318 664.0109794 188 671 C188.73718262 671.47679199 189.47436523 671.95358398 190.23388672 672.44482422 C200.32668214 678.95650756 210.53546242 685.14395198 221.06152344 690.92773438 C223.01015636 692.00561798 224.94779306 693.10100946 226.8828125 694.203125 C257.35360804 711.55523701 289.05111375 726.00984673 322 738 C322.95874023 738.35094727 323.91748047 738.70189453 324.90527344 739.06347656 C328.1643634 740.25524081 331.4255693 741.44103461 334.6875 742.625 C336.2195105 743.18380859 336.2195105 743.18380859 337.7824707 743.75390625 C368.88829429 754.97886675 401.32543436 763.08716902 433.6875 769.75 C434.38103577 769.89293488 435.07457153 770.03586975 435.78912354 770.18313599 C453.38379615 773.79112499 471.0040806 776.66300695 488.8125 779 C489.80033478 779.13039673 490.78816956 779.26079346 491.80593872 779.3951416 C517.82706619 782.82414615 543.78294246 785.56384237 570 787 C571.0528418 787.05929687 572.10568359 787.11859375 573.19042969 787.1796875 C615.17052787 789.43653758 657.09317807 787.80444344 699 785 C700.65982722 784.89203582 702.31965764 784.784121 703.97949219 784.67626953 C749.08808165 781.68556737 794.75070247 775.45080837 838.83984375 765.3828125 C843.52793962 764.31388595 848.23029379 763.32839307 852.94140625 762.3671875 C919.04517539 748.78294712 984.73196251 728.38612333 1047.15197754 702.75598145 C1050.19792412 701.50995812 1053.25212974 700.28440641 1056.3046875 699.0546875 C1084.72891709 687.52885661 1112.47249035 674.50894912 1140 661 C1140.93618164 660.54286621 1141.87236328 660.08573242 1142.83691406 659.61474609 C1155.11260752 653.61314458 1167.15124699 647.22883589 1179.10205078 640.60498047 C1182.05266448 638.97083266 1185.00872417 637.34681869 1187.96484375 635.72265625 C1216.75701271 619.82812875 1244.79007433 602.47047229 1272 584 C1272.72751465 583.50677246 1273.4550293 583.01354492 1274.20458984 582.50537109 C1279.81936382 578.69379661 1285.41545782 574.85571547 1291 571 C1291.71414063 570.50773926 1292.42828125 570.01547852 1293.1640625 569.50830078 C1304.58941784 561.61057739 1315.65384567 553.27384516 1326.65869141 544.80224609 C1328.68005416 543.24628157 1330.70423211 541.69413858 1332.73046875 540.14453125 C1335.82835895 537.773369 1338.91609279 535.38933352 1342 533 C1342.55703613 532.56913086 1343.11407227 532.13826172 1343.68798828 531.69433594 C1351.24787193 525.83758397 1358.64465916 519.83051394 1365.9140625 513.6171875 C1368.75605565 511.19308244 1371.65290065 508.84268601 1374.5625 506.5 C1379.63319551 502.3754401 1384.43192479 498.00383401 1389.22265625 493.5625 C1392.10962121 490.89885863 1395.04923334 488.30851652 1398.015625 485.734375 C1401.19109389 482.95896518 1404.31722624 480.12936989 1407.4453125 477.30078125 C1409.07769445 475.8306391 1410.71763211 474.36881532 1412.3671875 472.91796875 C1418.28396716 467.68986344 1423.86621841 462.19326873 1429.35449219 456.52075195 C1430.8668748 454.97758671 1432.42948797 453.48396499 1434 452 C1434.66 452 1435.32 452 1436 452 C1436 451.34 1436 450.68 1436 450 C1437.375 448.375 1437.375 448.375 1439 447 C1439.66 447 1440.32 447 1441 447 C1441 446.34 1441 445.68 1441 445 C1441.66 445 1442.32 445 1443 445 C1443 444.34 1443 443.68 1443 443 C1444.40463358 441.83518191 1445.81304883 440.67467774 1447.23828125 439.53515625 C1449.7633243 437.33484157 1451.82737849 434.80998048 1453.9921875 432.26171875 C1457.14756482 428.70731511 1460.5605134 425.41980113 1463.9609375 422.1015625 C1466.04126091 420.16903954 1466.04126091 420.16903954 1467 418 C1467.66 418 1468.32 418 1469 418 C1469.38091797 417.12601563 1469.38091797 417.12601563 1469.76953125 416.234375 C1471.13320333 413.75811967 1472.64225203 412.19479374 1474.6875 410.25 C1481.12074783 403.9666307 1486.80979677 397.06865449 1492.60083008 390.19824219 C1495.04656114 387.29830984 1497.50379803 384.40980478 1499.98828125 381.54296875 C1506.38104688 374.16246631 1512.53396758 366.64496733 1518.5078125 358.921875 C1520.11074785 356.85736141 1521.72632058 354.80317524 1523.34375 352.75 C1535.51433056 337.26572311 1546.96134297 321.30748651 1558 305 C1558.6197168 304.08686035 1558.6197168 304.08686035 1559.25195312 303.15527344 C1573.79813663 281.68178701 1587.06607849 259.46954711 1600 237 C1600.33 237.66 1600.66 238.32 1601 239 C1600.02429667 241.45288974 1598.9826993 243.78372894 1597.8359375 246.15625 C1597.49255341 246.88197708 1597.14916931 247.60770416 1596.79537964 248.35542297 C1595.66354565 250.74099756 1594.51982609 253.12063598 1593.375 255.5 C1592.58790844 257.14788366 1591.80112651 258.79591525 1591.01464844 260.4440918 C1588.69099399 265.30313807 1586.34848341 270.15291443 1584 275 C1583.67914429 275.66340393 1583.35828857 276.32680786 1583.02770996 277.01031494 C1575.27759083 293.02300536 1566.9836403 308.64528022 1558 324 C1557.25218262 325.27883057 1557.25218262 325.27883057 1556.48925781 326.58349609 C1529.70549914 372.17944651 1498.72440442 415.0518347 1464.45019531 455.29541016 C1462.98196961 457.02119329 1461.51826467 458.75074272 1460.0546875 460.48046875 C1454.43290348 467.10292665 1448.70269831 473.59118142 1442.74438477 479.9140625 C1440.05813235 482.72775456 1440.05813235 482.72775456 1438 486 C1437.34 486 1436.68 486 1436 486 C1435.75894531 486.56847656 1435.51789063 487.13695313 1435.26953125 487.72265625 C1433.75031912 490.44788908 1431.92581019 492.26690339 1429.6875 494.4375 C1428.47126953 495.62859375 1428.47126953 495.62859375 1427.23046875 496.84375 C1426.49441406 497.5553125 1425.75835938 498.266875 1425 499 C1421.86045683 502.06105459 1418.90640573 505.2197631 1416 508.5 C1412.19923262 512.74716623 1408.27211357 516.83920578 1404.25 520.875 C1403.70730469 521.42220703 1403.16460938 521.96941406 1402.60546875 522.53320312 C1399.54587225 525.58152348 1396.38103006 528.3060825 1393 531 C1391.31115758 532.64419185 1389.64457728 534.3115329 1388 536 C1382.90978819 541.16494576 1377.8309369 546.25242665 1372.31640625 550.96484375 C1369.83161756 553.14793803 1367.42172334 555.39871491 1365.01098633 557.6628418 C1359.46767207 562.8677237 1353.85260334 567.86500573 1347.9140625 572.62109375 C1344.35459706 575.5268772 1340.89761741 578.53974005 1337.4375 581.5625 C1331.73830112 586.52851847 1325.95668688 591.34378064 1320 596 C1318.98035156 596.804375 1317.96070312 597.60875 1316.91015625 598.4375 C1313.94088397 600.77963215 1310.96459252 603.11267657 1307.98632812 605.44335938 C1305.89965682 607.07863669 1303.81709493 608.71906903 1301.734375 610.359375 C1292.08166858 617.93955112 1282.26621998 625.24035388 1272.27636719 632.36914062 C1269.93971551 634.04318966 1267.61313801 635.73041649 1265.2890625 637.421875 C1256.97453775 643.47053374 1248.60020853 649.36145268 1240 655 C1238.31673024 656.13216364 1236.6335012 657.26438861 1234.95117188 658.39794922 C1207.43653217 676.88572718 1179.0679096 694.07579985 1150 710 C1149.02675781 710.53544434 1148.05351562 711.07088867 1147.05078125 711.62255859 C1122.62771675 725.04464661 1097.9915284 737.84467508 1072.60839844 749.35986328 C1069.52883064 750.75962894 1066.45469128 752.17015847 1063.38276672 753.58654785 C986.99916889 788.78078352 906.28135893 815.71970384 805 838 C804.25437805 838.15556366 803.5087561 838.31112732 802.74053955 838.47140503 C789.79597181 841.16369591 776.81714363 843.42876296 763.75 845.4375 C762.79331421 845.58585297 761.83662842 845.73420593 760.85095215 845.88705444 C742.0509124 848.79490308 723.20602039 851.27281397 704.3125 853.48730469 C701.58015198 853.8081946 698.85334469 854.1494004 696.125 854.50488281 C681.96729687 856.30632362 667.73829059 857.21549447 653.5 858.125 C652.80756195 858.16958218 652.1151239 858.21416435 651.40170288 858.2600975 C622.53808145 860.10936358 593.77945547 860.53219934 564.85510254 860.04748535 C562.259886 860.00432236 559.66467752 859.96726098 557.06933594 859.93261719 C509.28783046 859.25044836 460.52719022 854.5680587 413.7265625 844.76171875 C411.01478749 844.20742511 408.31027899 843.68981857 405.5859375 843.20703125 C377.8940276 838.25287149 350.28404789 831.32484028 323.66796875 822.2109375 C319.65908938 820.8874523 315.62162755 819.71936969 311.5625 818.5625 C303.93286849 816.36442311 296.55541197 813.70812444 289.15917969 810.83007812 C286.90776451 809.96454086 284.64705165 809.12825332 282.3828125 808.296875 C261.5694753 800.60615867 241.25771031 791.64148636 221.25 782.0625 C220.16251465 781.54341064 219.0750293 781.02432129 217.95458984 780.48950195 C212.17145076 777.68373566 206.61220624 774.67487295 201.13525391 771.31030273 C198.65448604 769.78797469 196.12589493 768.37808111 193.5625 767 C192.64339844 766.50242187 191.72429687 766.00484375 190.77734375 765.4921875 C188.95871441 764.51508988 187.13845827 763.5410127 185.31640625 762.5703125 C173.41669142 756.18004474 162.10128184 748.87195539 150.875 741.375 C150.29416656 740.98770721 149.71333313 740.60041443 149.11489868 740.2013855 C138.50522138 733.1155274 128.13804612 725.74731938 118 718 C117.36320312 717.5148291 116.72640625 717.0296582 116.0703125 716.52978516 C103.54111659 706.94455379 91.65938121 696.61969117 80 686 C79.14921875 685.24203125 78.2984375 684.4840625 77.421875 683.703125 C70.64300025 677.60592481 64.1441111 671.24969538 57.6875 664.8125 C56.83945801 663.96905029 55.99141602 663.12560059 55.11767578 662.2565918 C50.20464127 657.33147051 45.51722859 652.28875462 41 647 C40.05068465 645.91691097 39.10021683 644.83483067 38.1484375 643.75390625 C25.47892101 629.22926704 14.18009616 613.68357251 3 598 C1.86111328 596.40865234 1.86111328 596.40865234 0.69921875 594.78515625 C-3.76706118 588.48797896 -3.76706118 588.48797896 -4.87744141 586.16186523 C-6.13276285 583.74432034 -7.62228723 581.6631544 -9.23046875 579.46484375 C-13.05814642 574.05541564 -16.21558372 568.41329247 -19.3125 562.5625 C-19.8708252 561.51916504 -20.42915039 560.47583008 -21.00439453 559.40087891 C-22.67655157 556.27089497 -24.33930729 553.13607857 -26 550 C-26.93877306 548.23566164 -27.87757321 546.47133769 -28.81640625 544.70703125 C-42.72994464 518.48316053 -42.72994464 518.48316053 -46 509 C-47.99376252 503.64978519 -47.99376252 503.64978519 -50.05688477 498.32617188 C-53.29176849 490.09744051 -56.14564351 481.7852111 -58.85717773 473.37182617 C-59.5590543 471.19817105 -60.27040891 469.02777464 -60.98242188 466.85742188 C-65.52208682 452.90335348 -68.90768239 438.76598431 -72.0625 424.4375 C-72.30548828 423.34759766 -72.54847656 422.25769531 -72.79882812 421.13476562 C-73.5460736 417.75927745 -74.27693862 414.38074876 -75 411 C-75.25692627 409.80721436 -75.51385254 408.61442871 -75.77856445 407.38549805 C-77.67690368 398.28314358 -79.02731251 389.17177721 -80.0625 379.9375 C-80.14649048 379.20087128 -80.23048096 378.46424255 -80.3170166 377.70529175 C-82.36617233 359.51794464 -83.34832895 341.28525607 -84 323 C-84.03609375 322.01112793 -84.0721875 321.02225586 -84.109375 320.00341797 C-84.28633007 314.32426604 -84.20722576 308.67743064 -84 303 C-83.93039062 301.04682861 -83.93039062 301.04682861 -83.859375 299.05419922 C-81.04629582 224.19343791 -64.53847067 152.65281004 -38.4375 82.5625 C-37.89706055 81.08620117 -37.89706055 81.08620117 -37.34570312 79.58007812 C-35.63721096 74.99476434 -33.84521264 70.56370834 -31.59765625 66.21484375 C-29.53462293 62.22188878 -27.84576375 58.1740396 -26.21875 53.984375 C-23.08981309 45.96119937 -19.40785504 38.24587937 -15.61376953 30.51904297 C-14.49552413 28.24088147 -13.38585234 25.95869392 -12.27734375 23.67578125 C-8.37782859 15.67281226 -4.37034137 7.75967162 0 0 Z " fill="#1BA9E6" transform="translate(934,1643)"/>
<path d="M0 0 C0.29543701 0.7213916 0.59087402 1.4427832 0.89526367 2.18603516 C6.63155679 16.17189466 12.42660032 30.12964173 18.4375 44 C18.70488983 44.61742065 18.97227966 45.23484131 19.24777222 45.87097168 C22.24010533 52.77074986 25.27820106 59.64747275 28.39453125 66.4921875 C53.13806561 120.84850524 65.45554545 177.0183733 45 235 C38.77893798 251.15720522 30.61950004 266.30857561 20 280 C19.34773438 280.85722656 18.69546875 281.71445313 18.0234375 282.59765625 C3.25119689 301.38108578 -15.05538151 316.56468825 -36 328 C-36.92449951 328.50756836 -36.92449951 328.50756836 -37.86767578 329.02539062 C-49.1374716 335.12852623 -60.94085852 339.7078061 -73 344 C-74.15113281 344.4125 -75.30226563 344.825 -76.48828125 345.25 C-86.41497529 348.54602292 -96.71371703 350.24304886 -107 352 C-107.85174805 352.15388184 -108.70349609 352.30776367 -109.58105469 352.46630859 C-141.08549622 358.07693786 -173.84639394 355.49951071 -205 349 C-206.29671631 348.73147217 -206.29671631 348.73147217 -207.61962891 348.45751953 C-243.31821967 340.9055059 -278.76070834 326.52471811 -309 306 C-309.6914209 305.53094238 -310.3828418 305.06188477 -311.09521484 304.57861328 C-336.09395637 287.49022405 -360.76883544 267.38258897 -379 243 C-379.48919922 242.34950684 -379.97839844 241.69901367 -380.48242188 241.02880859 C-387.95920801 231.04106097 -394.8938722 220.8820339 -401 210 C-401.33837891 209.40155273 -401.67675781 208.80310547 -402.02539062 208.18652344 C-406.43309793 200.33608491 -410.33218899 192.32780226 -413.85961914 184.04370117 C-415.97173298 179.1308792 -418.31576252 174.3578176 -420.734375 169.58984375 C-425.22969665 160.70024329 -429.25339564 151.62210739 -433.25 142.5 C-434.29482068 140.12126247 -435.34083896 137.74306864 -436.38909912 135.36584473 C-437.03240359 133.90642293 -437.67372854 132.44612606 -438.31256104 130.98474121 C-440.15512205 126.79807728 -442.12835898 122.71284412 -444.25189209 118.6607666 C-445 117 -445 117 -445 115 C-444.29726456 115.02898376 -443.59452911 115.05796753 -442.87049866 115.08782959 C-422.72203873 115.89880568 -402.60091441 116.24258445 -382.4375 116.25 C-381.69581196 116.25058914 -380.95412392 116.25117828 -380.18996048 116.25178528 C-358.68541031 116.26377662 -337.35572563 115.96174671 -315.97216797 113.46191406 C-312.43282391 113.05033207 -308.89276083 112.67566456 -305.34783936 112.3170929 C-286.39985919 110.39727862 -267.67840296 107.77883795 -249 104 C-247.75750488 103.74879395 -246.51500977 103.49758789 -245.23486328 103.23876953 C-215.08908446 97.05511712 -185.52807886 89.29260688 -156.45556641 79.18554688 C-153.41537013 78.14250653 -150.36511371 77.13734452 -147.30859375 76.1434021 C-140.03709992 73.76818139 -133.01343115 71.04558784 -126 68 C-124.8867334 67.5265918 -123.7734668 67.05318359 -122.62646484 66.56542969 C-80.99073429 48.85808256 -40.30671019 28.8029826 -4.07421875 1.3984375 C-2 0 -2 0 0 0 Z " fill="#B91548" transform="translate(1858,1605)"/>
<path d="M0 0 C0.12528076 0.80816162 0.25056152 1.61632324 0.37963867 2.44897461 C0.86934873 5.590448 1.36403128 8.73109594 1.86157227 11.87133789 C2.17234091 13.84140161 2.47790587 15.8122841 2.78320312 17.78320312 C4.10495248 26.17106752 5.6713941 34.49146002 7.36328125 42.8125 C10.39035905 57.70619183 13.00744998 72.66682621 15.625 87.63696289 C18.30253541 102.92297072 21.20655369 118.13052612 24.43414307 133.3097229 C25.28340551 137.34740658 26.08896676 141.39327695 26.88671875 145.44140625 C27.03319855 146.18332214 27.17967834 146.92523804 27.33059692 147.68963623 C27.62848057 149.19881797 27.92623946 150.70802434 28.22387695 152.21725464 C34.58003319 184.36998307 41.17600107 216.48152122 49.11328125 248.28515625 C50.59979933 254.26908896 51.97394328 260.27305977 53.32421875 266.2890625 C55.93432672 277.88234196 58.76932978 289.41564259 61.65673828 300.94262695 C62.50335836 304.3259208 63.34363905 307.71074913 64.18359375 311.09570312 C66.89020871 321.95290534 69.700992 332.74908269 72.93652344 343.46118164 C74.3419705 348.13793902 75.61604633 352.84469252 76.875 357.5625 C79.27215603 366.44566187 81.80193047 375.28462299 84.39624023 384.11206055 C86.03174227 389.6770797 87.64338111 395.24743005 89.21850586 400.82983398 C94.257467 418.66724311 99.70942245 436.37678701 105.63647461 453.93920898 C107.16180983 458.46163248 108.63048962 462.98972807 110 467.5625 C111.81456772 473.54525885 113.86649521 479.43006952 115.95019531 485.32299805 C117.83371981 490.65461898 119.68844762 495.99513525 121.51171875 501.34765625 C146.65059933 575.11481948 176.3116632 647.28992128 207.89666748 718.51080322 C209.00948605 721.0214012 210.12050718 723.5327871 211.23095703 726.04443359 C213.38036606 730.90585281 215.53320353 735.76574493 217.6875 740.625 C218.01002747 741.35322968 218.33255493 742.08145935 218.66485596 742.83175659 C225.66045654 758.61683446 233.03529166 774.21495401 240.4375 789.8125 C249.52930598 808.97302219 249.52930598 808.97302219 253.921875 818.3828125 C268.19006555 848.92897028 283.02151773 879.20881244 298.16937256 909.32803345 C301.93822936 916.82186989 305.61333607 924.34911612 309.1875 931.9375 C314.02528722 942.17935521 319.18832283 952.24462323 324.375 962.3125 C331.42634986 976.01121085 338.45560114 989.72054226 345.38482666 1003.48153687 C346.33468127 1005.36502331 347.28743054 1007.24705283 348.24310303 1009.12759399 C349.57207071 1011.7440446 350.89085039 1014.36538049 352.20703125 1016.98828125 C352.6080455 1017.77283691 353.00905975 1018.55739258 353.42222595 1019.36572266 C354.34288099 1021.21449248 355.18069183 1023.1041388 356 1025 C355.67 1025.66 355.34 1026.32 355 1027 C352.60390415 1027.53658187 350.2850427 1027.94632708 347.859375 1028.2890625 C347.14017883 1028.39721283 346.42098267 1028.50536316 345.67999268 1028.61679077 C344.15398823 1028.84447462 342.62732649 1029.06778867 341.10009766 1029.28710938 C338.77221697 1029.62180571 336.44664385 1029.96982628 334.12109375 1030.3203125 C332.63813809 1030.53985599 331.15506835 1030.75863055 329.671875 1030.9765625 C328.97898376 1031.07965729 328.28609253 1031.18275208 327.57220459 1031.28897095 C320.4564314 1032.30312622 320.4564314 1032.30312622 317 1032 C315.25390625 1030.03515625 315.25390625 1030.03515625 313.5625 1027.0625 C313.23523926 1026.49893799 312.90797852 1025.93537598 312.57080078 1025.35473633 C311.35816121 1023.2485014 310.17898407 1021.12525652 309 1019 C307.95496633 1017.13771813 306.90935218 1015.27576192 305.86328125 1013.4140625 C304.08816925 1010.24915965 302.31656047 1007.08244976 300.55249023 1003.91137695 C296.50120968 996.63511664 292.35078937 989.42607327 288.125 982.25 C282.19987925 972.1700231 276.5199008 961.96946862 270.89770508 951.71899414 C266.75939718 944.17567268 262.56734594 936.66587112 258.3125 929.1875 C252.24659487 918.51061164 246.39705723 907.72294369 240.57324219 896.91259766 C238.08596454 892.30781456 235.57342947 887.71691382 233.0625 883.125 C222.69559629 864.13185927 212.46017346 845.08212061 202.546875 825.84765625 C200.6442934 822.15949089 198.72874393 818.47928138 196.78678894 814.81169128 C191.01208313 803.90521928 185.39128775 792.93169437 179.87890625 781.890625 C179.04527647 780.22404295 178.21152823 778.55752015 177.37767029 776.89105225 C175.64623629 773.42964175 173.9162155 769.96752987 172.18725586 766.50488281 C170.00725326 762.13919682 167.82363948 757.77532865 165.63906097 753.41193104 C156.59778505 735.34965806 147.61127974 717.27223825 139 699 C138.27167479 697.46317289 137.54292549 695.92654668 136.8137207 694.39013672 C134.82694005 690.20097213 132.84902697 686.00768734 130.875 681.8125 C130.5358255 681.09218597 130.196651 680.37187195 129.84719849 679.62973022 C125.09305146 669.52774093 120.42411953 659.39330319 115.87890625 649.1953125 C113.54639036 643.96598165 111.13702837 638.77578237 108.66015625 633.61328125 C107.48217258 631.04943444 106.42691142 628.54880073 105.43359375 625.91796875 C102.74007939 618.64443249 102.74007939 618.64443249 97.3828125 613.30078125 C95.37485032 612.5418035 93.34377363 611.84196953 91.296875 611.1953125 C76.15573076 605.70575073 61.86965879 590.29378551 52 578 C51.11490286 576.92681972 50.22945082 575.85393211 49.34375 574.78125 C26.75460878 547.19993084 8.75843119 516.36834555 -8 485 C-8.47228027 484.1239209 -8.94456055 483.2478418 -9.43115234 482.34521484 C-22.64828064 457.79135189 -34.52449011 432.48211231 -44.93798828 406.61523438 C-46.03102016 403.92361197 -47.1564227 401.24714357 -48.28515625 398.5703125 C-61.78846384 366.20479035 -73.50820996 333.1199678 -85 300 C-85.64776872 298.13720086 -86.29555488 296.27440779 -86.94335938 294.41162109 C-93.91957142 274.32649006 -100.62059273 254.1820928 -106.87109375 233.859375 C-108.90082639 227.27067611 -111.03989831 220.72425887 -113.2890625 214.20727539 C-115.51267972 207.70868749 -116.1750063 201.98271421 -116.23828125 195.16796875 C-116.25304001 193.87743843 -116.25304001 193.87743843 -116.26809692 192.56083679 C-116.55241078 161.2103902 -113.81459834 130.74071609 -100 102 C-99.72607422 101.41412109 -99.45214844 100.82824219 -99.16992188 100.22460938 C-86.47743632 73.16741014 -68.24162591 48.00020015 -44.8203125 29.26953125 C-43.04116932 27.83783847 -41.28251596 26.37993792 -39.5546875 24.88671875 C-10.52776508 0 -10.52776508 0 0 0 Z " fill="#E04482" transform="translate(1199,643)"/>
<path d="M0 0 C3.36674227 0.1449029 6.73318416 0.29592057 10.09960938 0.44799805 C11.04753357 0.48872185 11.99545776 0.52944565 12.97210693 0.5714035 C19.58627933 0.87424463 26.00401455 1.49217775 32.5 2.8125 C33.41595947 2.99063232 34.33191895 3.16876465 35.27563477 3.35229492 C67.10084614 9.7409886 96.41244834 27.91924453 114.58984375 55.14453125 C122.56258546 67.63483304 128.82715892 80.78499781 133 95 C133.23058105 95.76940918 133.46116211 96.53881836 133.69873047 97.33154297 C141.26098315 123.28250724 140.21602935 149.99369011 138.86322021 176.67333984 C138.67845033 180.36833911 138.5092163 184.06403362 138.33984375 187.75976562 C138.27114323 189.25477715 138.20241739 190.74978752 138.13366699 192.24479675 C138.09909897 192.99720327 138.06453094 193.74960979 138.02891541 194.52481651 C137.91979067 196.88492271 137.80873345 199.24493231 137.6973877 201.60493469 C137.08255234 214.71569955 136.5662201 227.82926866 136.078125 240.9453125 C136.03777885 242.02947952 135.99743271 243.11364655 135.95586395 244.23066711 C135.78231316 248.90127981 135.60917101 253.57190746 135.43647385 258.2425518 C134.50937491 283.29510398 133.54955226 308.34644828 132.59267807 333.39787769 C132.26174783 342.06328996 131.93188217 350.7287403 131.60449219 359.39428711 C131.31210546 367.13328021 131.01769334 374.87219342 130.72103405 382.61102396 C130.56647589 386.64451614 130.41274343 390.67803462 130.26150513 394.71165276 C129.61260045 411.99984764 128.86838581 429.27925093 127.95458984 446.55566406 C127.91219555 447.35719748 127.86980125 448.15873091 127.82612228 448.98455322 C127.20816262 460.60220678 126.5430599 472.21419073 125.625 483.8125 C125.53312408 484.99040604 125.53312408 484.99040604 125.43939209 486.19210815 C117.64986407 585.07495285 117.64986407 585.07495285 95.3828125 614.08203125 C92.62492442 617.90723759 93.10354031 620.71389078 93.82592773 625.20385742 C93.96587158 626.02345947 94.10581543 626.84306152 94.25 627.6875 C94.39058838 628.54255127 94.53117676 629.39760254 94.67602539 630.27856445 C95.74907473 636.72704575 96.94885351 643.14704992 98.18359375 649.56640625 C99.21904901 655.06958791 100.09769626 660.59876219 101 666.125 C102.22226593 673.58271851 103.58162562 680.9640101 105.234375 688.33984375 C106.19177274 692.91679113 106.96995137 697.51503715 107.75 702.125 C110.38861374 717.59669551 113.44284313 732.98688529 116.48382568 748.38336182 C117.01886182 751.09561606 117.55185507 753.80826593 118.08447266 756.52099609 C124.67643526 790.07063624 132.02252196 823.36147561 140.1789093 856.56575012 C141.68423755 862.69829274 143.17244633 868.83487405 144.65625 874.97265625 C145.32465085 877.7322586 145.99335648 880.49178688 146.66220093 883.25128174 C147.08874581 885.01322898 147.51441495 886.77538852 147.93911743 888.53778076 C150.15824908 897.74220544 152.47772383 906.88187351 155.13110352 915.97192383 C156.30986359 920.0798646 157.31851618 924.21936397 158.3125 928.375 C160.45369184 937.13737637 162.92919776 945.78186936 165.48364258 954.43164062 C167.57682898 961.52347261 169.54805632 968.63030706 171.41943359 975.78417969 C175.0999471 989.83142133 178.86986763 1003.8320684 183.14794922 1017.71020508 C185.72794568 1026.08116404 188.25662877 1034.46652649 190.74716187 1042.86450195 C191.20491029 1044.40483219 191.66470714 1045.94455527 192.12661743 1047.48364258 C192.77581771 1049.64774158 193.41802292 1051.81380219 194.05859375 1053.98046875 C194.62018188 1055.86608521 194.62018188 1055.86608521 195.19311523 1057.78979492 C196 1061 196 1061 196 1065 C191.35746988 1066.71514746 186.71267928 1068.42396827 182.06567383 1070.12695312 C180.48495686 1070.70724713 178.90487297 1071.28926866 177.32543945 1071.87304688 C175.05584072 1072.71157911 172.78404208 1073.54388408 170.51171875 1074.375 C169.80536789 1074.63748535 169.09901703 1074.8999707 168.3712616 1075.17041016 C165.43928285 1076.23695003 163.14650219 1077 160 1077 C159.69296143 1075.99324219 159.38592285 1074.98648437 159.06958008 1073.94921875 C157.90525187 1070.13199409 156.74019856 1066.31499103 155.57495117 1062.49804688 C155.07541141 1060.86138635 154.57605563 1059.22466965 154.0769043 1057.58789062 C150.05625489 1044.40437153 146.01819599 1031.22673784 141.78344727 1018.11010742 C138.84080533 1008.95922204 136.22771495 999.73548729 133.67626953 990.46875 C131.77298923 983.61068354 129.70910406 976.82772658 127.5 970.0625 C124.49486283 960.85187289 121.91504733 951.55794132 119.484375 942.17993164 C117.85015239 935.92676042 115.97431651 929.81926105 113.89038086 923.70166016 C112.77732939 920.32435618 111.92967535 916.96393579 111.125 913.5 C109.68523949 907.49141887 108.00703323 901.59149389 106.1875 895.6875 C102.66523569 884.20849034 99.72608425 872.58667813 96.7578125 860.95458984 C95.52520025 856.14883164 94.23960718 851.35800726 92.953125 846.56640625 C92.24853534 843.92997036 91.55050632 841.29230468 90.859375 838.65234375 C90.44792256 837.08072762 90.03646405 835.50911309 89.625 833.9375 C89.41439941 833.13304443 89.20379883 832.32858887 88.98681641 831.49975586 C87.90415078 827.38067203 86.80370624 823.2677724 85.6640625 819.1640625 C79.23730935 796.01422114 73.33217238 772.69646931 68.25915527 749.21151733 C66.79795256 742.49185947 65.24099048 735.80426965 63.5953064 729.1275177 C59.64304683 713.0844484 56.1379978 696.96184061 52.78448486 680.78338623 C52.23708361 678.14869642 51.68474494 675.51505196 51.13240242 672.88139439 C48.3983934 659.83971389 45.72741437 646.78716786 43.203125 633.703125 C43.00278656 632.6660994 42.80244812 631.62907379 42.59603882 630.56062317 C41.15863808 623.0315192 39.89736433 615.48424155 38.7734375 607.90234375 C37.27536865 598.11046058 35.44192643 588.36480943 33.640625 578.625 C18.00171453 493.43998912 10.1313055 406.61882444 2.25 267.0625 C2.21997391 266.36990963 2.18994781 265.67731926 2.15901184 264.9637413 C1.72835272 254.97736465 1.3526674 244.98940625 1 235 C0.95425276 233.71165284 0.90850552 232.42330568 0.86137199 231.0959177 C-0.00797483 205.78356863 -0.13599421 180.49142381 -0.10139394 155.16592884 C-0.09501736 149.68481899 -0.09454557 144.2037082 -0.09336853 138.72259521 C-0.09029641 128.4071176 -0.08214035 118.09165096 -0.07201904 107.77617812 C-0.06072768 96.0053148 -0.0553151 84.23445088 -0.05032361 72.46358347 C-0.03995282 48.30904963 -0.0224358 24.15452544 0 0 Z " fill="#C11E53" transform="translate(1545,553)"/>
<path d="M0 0 C0.33 0 0.66 0 1 0 C1.14099121 1.3096875 1.28198242 2.619375 1.42724609 3.96875 C1.95891895 8.90411951 2.49239341 13.83929301 3.02636719 18.77441406 C3.25568733 20.89610714 3.48454162 23.01785062 3.71289062 25.13964844 C4.46158757 32.09464905 5.22325047 39.04807622 6 46 C6.09172485 46.82951172 6.18344971 47.65902344 6.2779541 48.51367188 C6.52428549 50.71837798 6.77971728 52.92179192 7.0390625 55.125 C7.24716553 56.92324219 7.24716553 56.92324219 7.45947266 58.7578125 C8.00252229 62.01512915 8.91926826 64.88506994 10 68 C10.5224646 70.15594419 11.01422843 72.3194833 11.48046875 74.48828125 C11.75383057 75.73963867 12.02719238 76.99099609 12.30883789 78.28027344 C12.5232402 79.26634583 12.5232402 79.26634583 12.74197388 80.27233887 C16.75218688 98.63597743 21.65463594 116.67887178 27.25 134.625 C27.48404541 135.3768457 27.71809082 136.12869141 27.95922852 136.90332031 C29.39260836 141.39604941 31.10968122 145.67436144 33 150 C33.95306649 152.47476929 34.89176172 154.95091423 35.8125 157.4375 C36.07039307 158.12706787 36.32828613 158.81663574 36.59399414 159.52709961 C37.90512178 163.03551006 39.20139758 166.54867229 40.4765625 170.0703125 C43.55092912 178.50987156 47.01334227 186.67175013 50.92382812 194.76220703 C52.16562991 197.34441102 53.38773356 199.93554242 54.609375 202.52734375 C61.03981897 216.13340008 67.54265054 229.65491055 75.48046875 242.4609375 C76.81694385 244.69412211 78.0772348 246.94882329 79.328125 249.23046875 C81.91403728 253.90520589 84.69583184 258.4306912 87.5625 262.9375 C88.34185913 264.16521118 88.34185913 264.16521118 89.13696289 265.41772461 C111.08417919 299.85425905 135.67148165 332.40256722 163.47827148 362.3347168 C164.5996395 363.56187086 165.70643888 364.8023762 166.80493164 366.05004883 C173.27901112 373.37592104 180.13468425 380.28710867 187.05688477 387.18725586 C189.06577864 389.19076986 191.06924389 391.19960152 193.07226562 393.20898438 C199.21333633 399.3532448 205.36245489 405.38785807 212 411 C213.77570221 412.61967817 215.54708307 414.24411718 217.3125 415.875 C221.79312501 419.96118209 226.39605136 423.8396613 231.11328125 427.6484375 C234.30013086 430.2444909 237.43300057 432.89794955 240.5625 435.5625 C251.20894292 444.58883204 262.25067246 452.96476616 273.52294922 461.19189453 C275.12738525 462.36304112 276.73065242 463.53579138 278.33251953 464.71044922 C288.65780898 472.28025077 299.13085744 479.57067678 309.84130859 486.58544922 C311.87338027 487.91702842 313.89985625 489.25675257 315.92578125 490.59765625 C363.71363789 522.05257674 415.12869074 549.7667078 468.31201172 570.91723633 C471.02165481 572.00872289 473.71468823 573.13424491 476.40625 574.26953125 C490.80454884 580.30178393 505.36010976 585.75891146 520.0625 591 C520.97741211 591.3268277 521.89232422 591.6536554 522.83496094 591.99038696 C525.48369634 592.93489058 528.13399934 593.87481699 530.78515625 594.8125 C531.95734459 595.22909126 531.95734459 595.22909126 533.1532135 595.65409851 C537.98293589 597.35157726 542.84399835 598.88189365 547.75340271 600.33239746 C550.36208542 601.1075979 552.94804435 601.94082433 555.53125 602.796875 C569.67498934 607.43292449 583.89936754 611.49819232 598.29345703 615.27880859 C601.58714907 616.15645304 604.85531697 617.09942973 608.125 618.0625 C626.75861143 623.43882055 645.71519961 627.58634373 664.6875 631.5625 C665.82197571 631.80122833 666.95645142 632.03995667 668.12530518 632.28591919 C694.07630912 637.73744879 719.97893912 642.16414803 746.29101562 645.51611328 C749.88031076 645.98438493 753.46359691 646.48398276 757.046875 646.99609375 C788.77007932 651.4905239 820.79523494 654.34558188 852.79730225 655.89285278 C854.35720627 655.96873218 855.91696934 656.04753543 857.47662354 656.12838745 C877.52275836 657.15006255 897.55870994 657.1999901 917.625 657.1875 C918.47760532 657.18738041 919.33021065 657.18726082 920.2086525 657.1871376 C944.03589843 657.18291326 967.80316379 657.0774633 991.57763672 655.32080078 C995.62244091 655.02202058 999.66912845 654.7629129 1003.71697998 654.50917053 C1025.61756295 653.13222566 1047.38601731 651.1615356 1069.16308594 648.46875 C1072.73441764 648.0324458 1076.30737888 647.61985035 1079.8828125 647.21875 C1092.19872521 645.8245134 1104.38809778 644.01384281 1116.6015625 641.90625 C1121.05950276 641.14282967 1125.51268082 640.50194266 1130 639.9375 C1136.8347979 639.06066738 1143.57591905 637.84059139 1150.33496094 636.515625 C1153.50455373 635.90238022 1156.67797042 635.31094728 1159.8515625 634.71875 C1176.88773207 631.51429381 1193.74425628 627.83641571 1210.60546875 623.80078125 C1214.67546387 622.84065582 1218.75627991 621.93659715 1222.84033203 621.03857422 C1233.30027194 618.72894444 1243.55586028 615.9453283 1253.82910156 612.92041016 C1257.39755614 611.8846022 1260.97523563 610.88363121 1264.5546875 609.88671875 C1298.81329874 600.3172828 1332.78913166 589.76793423 1366 577 C1367.13646973 576.56655273 1368.27293945 576.13310547 1369.44384766 575.68652344 C1398.45967626 564.59259831 1426.95329755 552.35015186 1455 539 C1456.21887482 538.42163227 1457.43778818 537.84334577 1458.65673828 537.26513672 C1482.9402606 525.73297785 1506.71339434 513.44218324 1530 500 C1530.56434753 499.67475342 1531.12869507 499.34950684 1531.71014404 499.0144043 C1548.39368731 489.39678491 1564.87917808 479.5435403 1581 469 C1581.68658691 468.55108398 1582.37317383 468.10216797 1583.08056641 467.63964844 C1587.41239556 464.79685147 1591.71261743 461.90929532 1596 459 C1597.16305664 458.21230225 1597.16305664 458.21230225 1598.34960938 457.40869141 C1600.88108668 455.6923104 1603.40983875 453.97199518 1605.9375 452.25 C1607.10962036 451.45323853 1607.10962036 451.45323853 1608.30541992 450.64038086 C1613.3047379 447.2214821 1618.18598841 443.675169 1623 440 C1623.66 440.33 1624.32 440.66 1625 441 C1621.11749866 444.97543355 1617.21676477 448.8772636 1613 452.5 C1610.21103607 454.89676588 1607.58009215 457.37959391 1605 460 C1601.16445447 463.8799727 1597.14755921 467.45857014 1593 471 C1591.94635615 471.90594952 1590.89299323 472.81222583 1589.83984375 473.71875 C1586.83147938 476.30601121 1583.81674988 478.88572655 1580.79931641 481.46240234 C1579.6391774 482.45379386 1578.47992905 483.44622904 1577.32177734 484.43994141 C1569.0583927 491.52959221 1560.62390047 498.35392834 1552 505 C1551.21560547 505.60505371 1550.43121094 506.21010742 1549.62304688 506.83349609 C1547.00195678 508.85161477 1544.37673608 510.86423642 1541.75 512.875 C1540.95400391 513.48625732 1540.15800781 514.09751465 1539.33789062 514.72729492 C1524.50032184 526.04108727 1509.23289019 536.68713555 1493.6875 547 C1492.83493622 547.56682495 1491.98237244 548.1336499 1491.10397339 548.71765137 C1478.550198 557.06012074 1465.96322867 565.30324354 1453 573 C1451.61796387 573.82467773 1451.61796387 573.82467773 1450.20800781 574.66601562 C1436.25038361 582.97313523 1422.10098122 590.88539459 1407.76757812 598.52441406 C1405.20100632 599.89282973 1402.63921119 601.26979249 1400.078125 602.6484375 C1387.90747695 609.16457531 1375.49127375 615.12650939 1363 621 C1361.6601507 621.63280075 1360.32030628 622.26561184 1358.98046875 622.8984375 C1355.98174324 624.30687969 1352.97699214 625.70106896 1349.96777344 627.08691406 C1347.83977733 628.0743465 1345.72103507 629.08034832 1343.6015625 630.0859375 C1324.77026006 638.92546609 1305.37051642 646.43863987 1286 654 C1285.34561951 654.25585876 1284.69123901 654.51171753 1284.01702881 654.77532959 C1251.37876542 667.51522914 1217.83364868 677.63783827 1184.0625 686.88085938 C1180.69011642 687.80580924 1177.32752224 688.76098779 1173.96875 689.734375 C1156.53638036 694.74298368 1138.74582974 698.30013938 1121 702 C1119.82469727 702.24637207 1118.64939453 702.49274414 1117.43847656 702.74658203 C1110.30523645 704.23477259 1103.15842534 705.63854854 1096 707 C1094.26532471 707.33547852 1094.26532471 707.33547852 1092.49560547 707.67773438 C1054.84358219 714.89663838 1016.5409007 720.089817 978.29956055 722.83135986 C975.80769848 723.01410259 973.31698747 723.20928386 970.82617188 723.40576172 C877.11355601 730.71320381 783.14039803 724.38330597 672.75 705.0625 C672.080755 704.92537598 671.41151001 704.78825195 670.72198486 704.64697266 C656.18326182 701.64364489 641.77783199 698.09116218 627.375 694.5 C626.29182495 694.23099884 625.2086499 693.96199768 624.09265137 693.68484497 C604.25210904 688.74239258 584.57222802 683.26214782 565.125 676.9375 C563.58694702 676.44117065 563.58694702 676.44117065 562.01782227 675.93481445 C555.65036639 673.87488662 549.28985542 671.79353878 542.9375 669.6875 C541.89456787 669.34223267 541.89456787 669.34223267 540.83056641 668.98999023 C479.70359667 648.54686459 420.15983789 620.25539826 365 587 C363.59572754 586.15393188 363.59572754 586.15393188 362.16308594 585.29077148 C353.24260767 579.86160282 344.54860393 574.12502578 335.875 568.3125 C334.40486834 567.32877334 332.93473486 566.34504941 331.46459961 565.36132812 C327.92539148 562.99165567 324.38889342 560.61797114 320.85308838 558.2432251 C319.21001631 557.14089859 317.56487503 556.04165771 315.91943359 554.94287109 C304.93701432 547.60847939 294.40571272 539.85376569 284.06640625 531.63720703 C282.12574107 530.09962425 280.17516709 528.57605785 278.21875 527.05859375 C271.36469435 521.73534573 264.67819433 516.25247239 258.08203125 510.61328125 C255.26364971 508.20918687 252.38828047 505.88232006 249.5 503.5625 C244.12352836 499.19068292 239.06903608 494.51636219 234.0078125 489.7890625 C231.61226974 487.55491626 229.1728122 485.3844446 226.6875 483.25 C223.28247327 480.30897062 220.14005811 477.15773343 216.984375 473.953125 C215.1322053 472.13012333 213.2282482 470.43396334 211.25 468.75 C203.50808002 462.07698416 196.32738309 454.70590276 189.70703125 446.92578125 C187.72400205 444.68863389 185.62806614 442.59945348 183.5 440.5 C179.45170287 436.49252604 175.69302568 432.33372604 172 428 C171.07212718 426.9240369 170.14369443 425.84855654 169.21484375 424.7734375 C163.03096361 417.60469883 156.947274 410.36707397 151 403 C150.04299025 401.82550331 149.08595768 400.65102522 148.12890625 399.4765625 C141.41730613 391.20312316 135.10957442 382.72493817 129 374 C128.30946533 373.06414063 128.30946533 373.06414063 127.60498047 372.109375 C124 367.20650026 124 367.20650026 124 365 C123.34 365 122.68 365 122 365 C120.58984375 363.05078125 120.58984375 363.05078125 118.9375 360.3125 C116.32997899 356.08670306 113.62098418 351.98883494 110.75 347.9375 C105.55565199 340.54701221 100.92813694 332.82405058 96.26953125 325.08935547 C94.5285285 322.22406671 92.72835808 319.39682176 90.9375 316.5625 C86.36152929 309.12770783 82.38178874 301.39957692 78.37695312 293.64794922 C76.94984872 290.90355659 75.50085496 288.17164699 74.046875 285.44140625 C65.14034906 268.66093279 57.24644992 251.55743344 50 234 C49.6294751 233.10982178 49.2589502 232.21964355 48.87719727 231.30249023 C45.81101009 223.90989861 42.87866307 216.46740412 40 209 C39.75167419 208.35889282 39.50334839 207.71778564 39.24749756 207.05725098 C20.09469937 157.4703923 9.00045852 104.74014119 3 52 C2.85046875 50.69385742 2.7009375 49.38771484 2.546875 48.04199219 C0.73850029 32.01142692 -0.48595387 16.14446732 0 0 Z " fill="#FEB05D" transform="translate(796,1993)"/>
<path d="M0 0 C-2.39336946 17.73997998 -4.94227559 35.44496084 -7.68966675 53.13397217 C-18.51280537 122.97949776 -28.28210325 193.13493503 -35.72644043 263.42987061 C-36.00963604 266.09053194 -36.29776464 268.75062399 -36.58691406 271.41064453 C-41.89013471 320.32193156 -46.1617675 369.3727192 -49.12778854 418.48249054 C-49.24478647 420.41393324 -49.36393551 422.34524528 -49.48318481 424.27655029 C-52.23436198 469.38416616 -53.36739354 514.51336214 -53.25835419 559.70010757 C-53.24979725 563.33615263 -53.24398615 566.97219483 -53.23858643 570.60824585 C-53.17967909 605.67647121 -53.04479109 640.70229467 -51.12458801 675.72678375 C-50.98880519 678.20425898 -50.85447987 680.68181149 -50.72009277 683.15936279 C-45.72431836 774.87554481 -37.96516631 866.20169904 -22.98043156 993.96978474 C-22.69948403 996.27065445 -22.41968304 998.57166116 -22.14009094 1000.87269592 C-21.80340951 1003.64355417 -21.46183968 1006.41374158 -21.11686707 1009.18357849 C-20.96856949 1010.39868607 -20.82027191 1011.61379364 -20.66748047 1012.86572266 C-20.53775848 1013.91297516 -20.4080365 1014.96022766 -20.27438354 1016.03921509 C-19.99591777 1019.04404998 -19.95191677 1021.98412244 -20 1025 C-23.72984662 1027.01073557 -27.46120969 1029.01862288 -31.19384766 1031.02416992 C-32.45661152 1031.70312501 -33.71899747 1032.38278356 -34.98095703 1033.06323242 C-41.86617767 1036.77509718 -48.77242924 1040.44504134 -55.7421875 1043.99609375 C-56.87253418 1044.57415771 -58.00288086 1045.15222168 -59.16748047 1045.74780273 C-62 1047 -62 1047 -65 1047 C-68.59191457 1027.03572131 -72.03934335 1007.06947253 -75 987 C-75.15146484 985.97583984 -75.30292969 984.95167969 -75.45898438 983.89648438 C-76.73654913 975.25540291 -76.73654913 975.25540291 -77.36425781 970.98046875 C-78.33827442 964.3727997 -79.34181209 957.77049714 -80.375 951.171875 C-88.76014925 897.56658912 -95.74740625 843.7583577 -100.57519531 789.71142578 C-100.90680553 786.00813049 -101.25343616 782.30651984 -101.60850525 778.60540771 C-103.74468053 756.31820607 -105.14407662 733.9973124 -106.43748474 711.64694214 C-106.80003707 705.38404168 -107.17437566 699.12205641 -107.56246948 692.86068726 C-109.20228653 666.3773084 -110.51433364 639.88518082 -111.625 613.375 C-111.67375338 612.21326893 -111.67375338 612.21326893 -111.72349167 611.02806854 C-112.60121499 590.04524487 -113.38306319 569.06372678 -113.62158203 548.06201172 C-113.5724795 532.12531504 -113.5724795 532.12531504 -120.5390625 518.36328125 C-121.41691406 517.53376953 -121.41691406 517.53376953 -122.3125 516.6875 C-132.87795358 506.70036598 -137.51792054 491.59086956 -140.875 477.875 C-141.04197388 477.198927 -141.20894775 476.522854 -141.38098145 475.82629395 C-150.54327498 438.45872005 -154.8155636 400.23357748 -157.6875 361.9375 C-157.74852905 361.13223877 -157.80955811 360.32697754 -157.87243652 359.49731445 C-159.70043244 334.98732371 -160.1549735 310.46892086 -160.1328125 285.8984375 C-160.13303738 283.19438644 -160.13446151 280.49033616 -160.13571167 277.7862854 C-160.13750945 272.16773983 -160.13519055 266.54920759 -160.13037109 260.93066406 C-160.12492783 254.51233458 -160.12670144 248.09403689 -160.1321975 241.67570817 C-160.13679158 236.07821367 -160.1373491 230.48072851 -160.13475883 224.88323271 C-160.13323077 221.57797322 -160.13331955 218.27274 -160.13629532 214.96747971 C-160.1453641 202.07385292 -160.06566526 189.19015357 -159.62060547 176.30322266 C-159.59078646 175.30283651 -159.56096745 174.30245037 -159.53024483 173.2717495 C-159.14806695 163.71058153 -157.02849015 155.03771985 -154 146 C-153.72269043 145.14905762 -153.44538086 144.29811523 -153.15966797 143.42138672 C-143.11958347 112.97887262 -128.18964604 85.01115149 -106.30078125 61.48828125 C-104.30347565 59.32820712 -102.39456662 57.12452055 -100.5 54.875 C-79.09403628 30.382595 -33.98668587 0 0 0 Z " fill="#B40D3F" transform="translate(1869,542)"/>
<path d="M0 0 C18.89916947 17.22715391 32.25294298 39.50179069 40.453125 63.53857422 C41.29700153 66.00931044 42.16091859 68.4720652 43.03125 70.93359375 C45.15586233 76.96338024 47.23588238 83.00822836 49.3125 89.0546875 C49.5567572 89.76554504 49.8010144 90.47640259 50.05267334 91.20880127 C71.96158878 154.98221035 71.96158878 154.98221035 81.60839844 185.81005859 C82.27708264 187.94177932 82.95357559 190.07084064 83.6328125 192.19921875 C86.28387251 200.54126207 88.71053658 208.93229453 91.08447266 217.35668945 C92.51417948 222.38901963 94.04486642 227.35700482 95.75 232.3046875 C99.00967681 241.85386893 101.59121099 251.59491403 104.26757812 261.32006836 C105.04435608 264.09632357 105.8344762 266.8667126 106.63867188 269.63500977 C110.37300229 282.5095248 113.8051203 295.44594689 117.09960938 308.43969727 C117.93964466 311.75064052 118.78591665 315.05994636 119.6328125 318.36914062 C122.07231916 327.93481845 124.4798703 337.50545984 126.6484375 347.13671875 C126.80639801 347.8309343 126.96435852 348.52514984 127.12710571 349.24040222 C129.78189089 361.30581203 131.05907562 373.84591429 127 385.671875 C123.96534283 396.18972087 128.12686645 404.9676335 132.96533203 414.21289062 C134.81362042 417.5378754 136.7083554 420.83114307 138.625 424.1171875 C139.33256345 425.34161785 140.03966589 426.5663147 140.74633789 427.79125977 C146.8329728 438.31890381 153.03757643 448.77747176 159.2578125 459.2265625 C163.05723147 465.61340598 166.81790191 472.02225482 170.56936646 478.43731689 C184.95396486 503.03139972 199.51801118 527.51323688 214.35302734 551.83837891 C216.22541796 554.91174969 218.09231321 557.98837562 219.95703125 561.06640625 C227.66960151 573.78903468 235.51002699 586.42716734 243.41699219 599.02978516 C245.31599155 602.06025941 247.20967712 605.09398645 249.1015625 608.12890625 C263.05351645 630.50832391 277.27988845 652.691573 291.77716064 674.72076416 C293.4589361 677.27729016 295.13946811 679.83463072 296.81982422 682.39208984 C300.00933401 687.24620401 303.20091157 692.09895342 306.39376831 696.9508667 C307.65429102 698.86676177 308.914336 700.78297126 310.17385864 702.69952393 C317.36943996 713.6464172 324.64212964 724.52825519 332.09973145 735.29837036 C335.32437902 739.96826701 338.50063975 744.67147001 341.6875 749.3671875 C351.63165923 764.00430759 361.62055418 778.61031074 371.65234375 793.1875 C373.39677489 795.72242619 375.13893213 798.25888758 376.87890625 800.796875 C382.26655829 808.65213848 387.6864066 816.48460226 393.125 824.3046875 C393.79821289 825.27317627 394.47142578 826.24166504 395.16503906 827.23950195 C398.56568761 832.12661538 401.97830816 837.00467968 405.4140625 841.8671875 C406.06012451 842.78338867 406.70618652 843.69958984 407.37182617 844.64355469 C408.59796497 846.38083701 409.82716071 848.11596696 411.05981445 849.84863281 C411.60597412 850.62303711 412.15213379 851.39744141 412.71484375 852.1953125 C413.19429443 852.87110352 413.67374512 853.54689453 414.16772461 854.24316406 C415.3125 856.0546875 415.3125 856.0546875 416.3125 859.0546875 C411.35475313 859.34579593 406.39667988 859.63025812 401.43823242 859.90917969 C399.75974836 860.00446271 398.08135744 860.10140463 396.40307617 860.20019531 C391.51445503 860.48733039 386.6260097 860.74175186 381.73330688 860.94876099 C380.11507673 861.01956939 378.49718034 861.09845173 376.87973022 861.18527222 C374.56055571 861.30437462 372.24294713 861.38557997 369.921875 861.45703125 C368.88583885 861.51969177 368.88583885 861.51969177 367.82887268 861.58361816 C363.84351086 861.6590698 362.41443704 861.14062086 359.32519531 858.53637695 C357.61046835 856.38360603 356.04073204 854.38955525 354.6875 852.0078125 C352.62669215 848.53019925 350.37466209 845.25507718 348.01489258 841.97436523 C346.47495314 839.83234795 344.96011557 837.67429954 343.44921875 835.51171875 C340.28077496 830.99402859 337.05198564 826.52159488 333.8125 822.0546875 C329.10026099 815.5521756 324.44614511 809.01196535 319.82763672 802.44262695 C316.23854209 797.34564265 312.59816986 792.28794588 308.9375 787.2421875 C302.51774225 778.38671797 296.25109062 769.42787249 289.99267578 760.45800781 C287.40244219 756.7529425 284.79631208 753.05918555 282.1875 749.3671875 C281.69870361 748.6752832 281.20990723 747.98337891 280.70629883 747.27050781 C279.24203029 745.19833345 277.77734571 743.12645389 276.3125 741.0546875 C265.29549825 725.47307794 254.28375702 709.88738248 243.50244141 694.14135742 C239.19603325 687.86137582 234.82203943 681.62912678 230.43359375 675.40625 C226.6347143 670.00221023 222.94695451 664.53191029 219.29321289 659.02880859 C216.27219651 654.49262944 213.19690313 649.99398606 210.125 645.4921875 C202.53691827 634.34403734 194.96716201 623.18345444 187.41488647 612.01101685 C186.15845938 610.15327804 184.90102624 608.29621916 183.64248657 606.43991089 C176.20653954 595.47009521 168.93329915 584.42438742 161.91479492 573.18237305 C159.49581319 569.31835471 156.98777176 565.52048554 154.4375 561.7421875 C148.50214208 552.91225972 142.82810753 543.91844905 137.13574219 534.93066406 C134.74716986 531.16293749 132.35021831 527.40058111 129.95288086 523.63842773 C127.61762338 519.97261282 125.28602812 516.30447518 122.95458984 512.63623047 C121.42647198 510.23386378 119.89508567 507.83361062 118.36328125 505.43359375 C109.45596201 491.44375572 100.87721083 477.2556137 92.3125 463.0546875 C91.93486511 462.42894836 91.55723022 461.80320923 91.16815186 461.1585083 C80.73757034 443.87466852 70.40033109 426.54155897 60.3125 409.0546875 C59.68666016 407.9704248 59.06082031 406.88616211 58.41601562 405.76904297 C38.25265489 370.78410737 19.11327653 335.275276 0.59375 299.39453125 C-1.55592636 295.23175667 -3.72205434 291.07835869 -5.90625 286.93359375 C-11.38300874 276.53399224 -16.65207598 266.08327414 -21.625 255.43359375 C-23.49453925 251.43823547 -25.44699664 247.49088858 -27.4375 243.5546875 C-37.6745912 223.24431937 -47.2976483 202.62968853 -56.80529785 181.97015381 C-57.71097036 180.00372788 -58.61847058 178.03815388 -59.52636719 176.07275391 C-74.52596586 143.58872562 -88.82504861 110.80759856 -102.9375 77.9296875 C-103.38370697 76.89124695 -103.82991394 75.8528064 -104.28964233 74.78289795 C-108.80689236 64.26331471 -113.28966326 53.74070628 -117.4675293 43.08105469 C-118.64748267 40.15395803 -119.91907425 37.29085246 -121.25 34.4296875 C-123.54906966 29.47162992 -125.5065165 24.4196657 -127.4375 19.30859375 C-128.63253413 16.19777053 -129.89293453 13.12523498 -131.1875 10.0546875 C-132.94069923 5.89631808 -134.59257054 1.71376641 -136.1875 -2.5078125 C-138.12747563 -7.60560335 -140.26256789 -12.56825887 -142.57421875 -17.5078125 C-145.6875 -24.32425987 -145.6875 -24.32425987 -145.6875 -27.9453125 C-139.68040405 -30.02639488 -133.62055648 -31.44494257 -127.375 -32.5703125 C-126.38222046 -32.75460815 -126.38222046 -32.75460815 -125.36938477 -32.94262695 C-79.68380043 -40.85593516 -34.88525307 -31.0515494 0 0 Z " fill="#EC5393" transform="translate(1027.6875,823.9453125)"/>
<path d="M0 0 C7.71807909 -0.05475935 15.20470305 0.24983786 22.875 1.125 C24.01412842 1.25406738 25.15325684 1.38313477 26.3269043 1.51611328 C57.08877761 5.17216223 87.45704504 10.56893525 117 20 C118.24185059 20.39010254 118.24185059 20.39010254 119.50878906 20.78808594 C158.12876856 32.96582552 195.18721534 50.11441137 228 74 C228.65371582 74.47115234 229.30743164 74.94230469 229.98095703 75.42773438 C244.69899226 86.07104443 258.00071006 97.83006488 270.875 110.625 C271.3615506 111.10619293 271.8481012 111.58738586 272.34939575 112.0831604 C279.02790489 118.70576943 285.17442105 125.61240422 291 133 C291.47630859 133.59135742 291.95261719 134.18271484 292.44335938 134.79199219 C322.96603745 172.73441071 341.37362889 216.82586799 352 264 C352.19231201 264.80880615 352.38462402 265.6176123 352.58276367 266.45092773 C353.96960926 272.35932395 354.80467541 278.29400946 355.5625 284.3125 C355.75102539 285.74625977 355.75102539 285.74625977 355.94335938 287.20898438 C356.31945576 290.13702274 356.66687459 293.06677545 357 296 C357.10078857 296.86004639 357.20157715 297.72009277 357.30541992 298.60620117 C358.37917686 309.26206124 358.19784991 319.98987107 358.1875 330.6875 C358.18709213 332.26177765 358.18709213 332.26177765 358.18667603 333.86785889 C358.16821598 349.33442158 357.88415277 364.63019822 356 380 C355.89816406 380.86979492 355.79632812 381.73958984 355.69140625 382.63574219 C347.79796633 448.43877065 323.69137 512.62288321 291 570 C290.48566406 570.91813477 289.97132813 571.83626953 289.44140625 572.78222656 C282.37041588 585.39849851 274.77793091 597.60190617 266.75 609.625 C266.13209595 610.55082886 266.13209595 610.55082886 265.50170898 611.49536133 C256.85501504 624.41791192 247.84811633 637.04377078 238.375 649.375 C237.65699219 650.3134375 236.93898438 651.251875 236.19921875 652.21875 C234.46813322 654.48070176 232.73507324 656.74110666 231 659 C231 655.79774196 231.33523524 655.10178631 232.984375 652.5078125 C233.63587524 651.46717651 233.63587524 651.46717651 234.30053711 650.40551758 C234.77885986 649.65294678 235.25718262 648.90037598 235.75 648.125 C246.69065859 630.54542783 256.66190574 612.47871627 266 594 C266.4031543 593.2044873 266.80630859 592.40897461 267.22167969 591.58935547 C275.75944046 574.59025889 282.54654521 556.73844854 288.97509766 538.85058594 C289.71474346 536.79339098 290.46436283 534.73977243 291.22021484 532.68847656 C294.16236611 524.62861601 296.72061188 516.53832478 298.9375 508.25 C299.10575287 507.62114899 299.27400574 506.99229797 299.44735718 506.34439087 C303.33814778 491.66667152 306.05809352 476.8174927 308.39794922 461.82226562 C308.91381265 458.5471813 309.46992692 455.28239232 310.03515625 452.015625 C312.33589863 437.51436001 312.28316789 422.96005108 312.3125 408.3125 C312.31626648 407.27568085 312.32003296 406.23886169 312.32391357 405.17062378 C312.35742325 386.95883303 311.56926309 368.70673695 308.3125 350.75 C308.06258301 349.35503296 308.06258301 349.35503296 307.80761719 347.93188477 C297.74554839 294.44054283 272.8036825 245.13597087 235 206 C234.101604 205.06873291 234.101604 205.06873291 233.18505859 204.11865234 C225.51320717 196.20922101 217.74520573 188.73060336 209 182 C207.71312437 180.9849038 206.42669933 179.96923621 205.140625 178.953125 C146.97053495 133.34717869 76.51313917 112.37876123 4 104 C2.40525443 88.62391329 1.50565917 73.29144951 0.99462891 57.84277344 C0.87557422 54.26724523 0.74512875 50.69226437 0.61328125 47.1171875 C0.05663964 31.40680606 -0.11260398 15.7195159 0 0 Z " fill="#FE8315" transform="translate(1848,1150)"/>
<path d="M0 0 C3.81428757 4.60345051 7.20818343 9.47514358 10.625 14.375 C11.24818115 15.26695068 11.8713623 16.15890137 12.51342773 17.07788086 C16.48932929 22.78559486 20.39737204 28.53232005 24.23413086 34.33422852 C27.6707142 39.52664839 31.171446 44.6736134 34.6875 49.8125 C35.24074951 50.62412598 35.79399902 51.43575195 36.36401367 52.27197266 C38.6701788 55.64612137 40.97993639 59.00849781 43.41796875 62.2890625 C44.06378906 63.16304687 44.70960938 64.03703125 45.375 64.9375 C45.91898438 65.64777344 46.46296875 66.35804687 47.0234375 67.08984375 C48 69 48 69 47.71850586 70.91137695 C46.93803179 73.18013524 46.02448565 74.50227867 44.48046875 76.328125 C43.95912354 76.95428711 43.43777832 77.58044922 42.90063477 78.22558594 C42.33530029 78.89364258 41.76996582 79.56169922 41.1875 80.25 C-10.28863285 142.40397624 -49.03453461 215.80396869 -69 294 C-69.21881836 294.8559375 -69.43763672 295.711875 -69.66308594 296.59375 C-73.07341145 310.21204817 -75.11826507 324.09993265 -77 338 C-77.12149414 338.87479004 -77.24298828 339.74958008 -77.36816406 340.65087891 C-83.43546112 386.31860888 -80.08985722 437.61260056 -64 481 C-63.39963701 482.6861614 -62.79938172 484.37236115 -62.19921875 486.05859375 C-48.83533907 522.91050437 -28.17285357 555.78002298 -1 584 C-0.24734863 584.78552246 -0.24734863 584.78552246 0.52050781 585.58691406 C7.28570887 592.61315181 14.34698854 598.93534941 22 605 C23.70847566 606.43733084 25.41680599 607.87483445 27.125 609.3125 C34.42877422 615.30861159 42.23284102 620.62715636 50 626 C49.34 626.33 48.68 626.66 48 627 C45.77954102 626.1105957 45.77954102 626.1105957 43.00390625 624.67578125 C41.97974609 624.14782959 40.95558594 623.61987793 39.90039062 623.07592773 C38.79888672 622.49399658 37.69738281 621.91206543 36.5625 621.3125 C35.43392578 620.71961182 34.30535156 620.12672363 33.14257812 619.51586914 C23.09002041 614.16744762 13.44445336 608.35449746 4 602 C3.2790918 601.51708496 2.55818359 601.03416992 1.81542969 600.53662109 C-14.21758925 589.71668155 -29.08601823 577.42662689 -43 564 C-43.92474121 563.10812988 -43.92474121 563.10812988 -44.86816406 562.19824219 C-52.78529105 554.51874783 -60.2408716 546.73470288 -67 538 C-68.1356745 536.56818153 -69.27248961 535.13726736 -70.41015625 533.70703125 C-76.73594676 525.7178387 -82.76652892 517.75621613 -88 509 C-88.88474471 507.61072006 -89.77167009 506.22282766 -90.66015625 504.8359375 C-98.7035384 492.08890812 -104.86481007 478.77607046 -110.75024414 464.91723633 C-111.85211438 462.34520126 -112.99264158 459.79628466 -114.15234375 457.25 C-116.0592495 452.97816198 -117.60897937 448.63170376 -119.0625 444.1875 C-119.32071533 443.40415283 -119.57893066 442.62080566 -119.8449707 441.8137207 C-121.86276538 435.60468005 -123.54992563 429.36618018 -125 423 C-125.23203125 422.071875 -125.4640625 421.14375 -125.703125 420.1875 C-129.21730663 405.83169421 -132.1407421 391.0130924 -132.82421875 376.23046875 C-132.86251483 373.96200357 -132.86251483 373.96200357 -134 372 C-139.67414202 334.73079418 -134.81413616 294.05119949 -128.0625 257.3125 C-127.89355225 256.39189789 -127.72460449 255.47129578 -127.55053711 254.52279663 C-125.81174338 245.16439638 -123.92477524 236.0089988 -120.95776367 226.94848633 C-119.97615914 223.92660563 -119.11825873 220.89120498 -118.2890625 217.82421875 C-115.07023829 205.94306868 -111.535736 194.43740998 -107 183 C-106.33425347 181.17806052 -105.6686042 179.35607834 -105.00878906 177.53198242 C-92.96239075 144.53955001 -77.28565235 112.9584846 -59 83 C-58.44328613 82.07912598 -57.88657227 81.15825195 -57.31298828 80.20947266 C-50.66592729 69.2222605 -43.77802647 58.45262333 -36.37695312 47.95800781 C-34.95423688 45.9349255 -33.54659174 43.9019391 -32.140625 41.8671875 C-22.09617992 27.39716994 -11.26916674 13.53492513 0 0 Z " fill="#FEB667" transform="translate(1190,1456)"/>
<path d="M0 0 C16.17 0 32.34 0 49 0 C57.55666667 17.11333333 57.55666667 17.11333333 61.00366211 24.56811523 C69.44906653 42.74103738 79.5514027 59.30608338 92 75 C92.76957031 75.98226563 93.53914063 76.96453125 94.33203125 77.9765625 C124.88327521 116.17937927 164.78165521 142.88446118 209 163 C210.10649902 163.50418457 210.10649902 163.50418457 211.23535156 164.01855469 C215.41925331 165.88979021 219.66553505 167.51827527 224 169 C224.88316895 169.30212402 225.76633789 169.60424805 226.67626953 169.91552734 C245.16605628 176.1272001 264.71555617 181.73564057 284.21484375 183.53515625 C288 184 288 184 290 186 C239.87107084 186.97585516 191.24475709 179.53348904 146 157 C145.08702148 156.54898926 144.17404297 156.09797852 143.23339844 155.63330078 C101.76147468 134.99518301 65.02143548 106.02647287 37 69 C36.58927246 68.46745605 36.17854492 67.93491211 35.75537109 67.38623047 C23.70616002 51.70721276 14.79156298 33.97965962 6.1875 16.25 C5.87478149 15.60868134 5.56206299 14.96736267 5.23986816 14.30661011 C4.35433958 12.48402307 3.4796619 10.65617607 2.60546875 8.828125 C2.10168701 7.7752832 1.59790527 6.72244141 1.07885742 5.63769531 C0 3 0 3 0 0 Z " fill="#FEFCFD" transform="translate(1458,1751)"/>
<path d="M0 0 C0.33 0 0.66 0 1 0 C3.47504555 15.50264641 5.91092308 31.00232998 8 46.5625 C9.27851121 56.04649618 10.69282552 65.49534285 12.25 74.9375 C14.59236044 89.16510246 16.71429902 103.42201805 18.8125 117.6875 C23.8393634 151.82023142 28.88427359 185.95572725 34.64111328 219.97436523 C36.18008928 229.06891175 37.68391961 238.16846993 39.16015625 247.2734375 C43.01379524 271.02796912 46.92144898 294.75655051 51.33691406 318.41357422 C52.46588769 324.51984172 53.54240885 330.6353725 54.625 336.75 C56.10467114 345.07043555 57.61189741 353.38465569 59.1875 361.6875 C59.34234863 362.50637695 59.49719727 363.32525391 59.65673828 364.16894531 C60.36894708 367.88731071 61.12827755 371.58248522 61.98828125 375.26953125 C62.78473972 378.79095582 63.36659684 382.30638592 63.88671875 385.87890625 C65.06136121 393.76742531 66.67929301 401.5514979 68.2840271 409.36108398 C70.98729549 422.54008329 73.55362912 435.71606276 75.6875 449 C77.41297004 459.73967446 79.45574387 470.36372031 81.7265625 481 C83.16516748 487.73908517 84.53763651 494.49013326 85.875 501.25 C86.10251953 502.36407227 86.33003906 503.47814453 86.56445312 504.62597656 C86.76748047 505.66206055 86.97050781 506.69814453 87.1796875 507.765625 C87.36257324 508.68118164 87.54545898 509.59673828 87.73388672 510.54003906 C88.00156346 513.01445269 87.77304017 514.65417572 87 517 C86.44972127 515.34916382 85.8994456 513.69832662 85.34918213 512.04748535 C84.85659568 510.56976731 84.36395919 509.09206595 83.87127686 507.61437988 C82.50262576 503.50917373 81.13488859 499.40366668 79.76879883 495.29760742 C76.35883193 485.04525446 76.35883193 485.04525446 72.890625 474.8125 C69.43164307 464.68139446 66.38698791 454.49011687 63.55786133 444.16455078 C61.80515627 437.78685758 59.92350548 431.4759816 57.875 425.1875 C55.53812697 417.98617855 53.5784379 410.73842161 51.82373047 403.3737793 C50.70977755 398.71880037 49.47260836 394.12012876 48.13671875 389.5234375 C20.6119551 293.9883946 7.69693689 193.34074192 1 69 C0.96239563 68.18867615 0.92479126 67.37735229 0.88604736 66.54144287 C-0.13103795 44.36493614 -0.11754333 22.19398943 0 0 Z " fill="#FDFAFC" transform="translate(1374,662)"/>
<path d="M0 0 C3.93067089 3.51739942 6.4988417 7.61985919 9.25 12.0625 C9.70890625 12.78244141 10.1678125 13.50238281 10.640625 14.24414062 C11.07375 14.93830078 11.506875 15.63246094 11.953125 16.34765625 C12.34661133 16.97679932 12.74009766 17.60594238 13.14550781 18.25415039 C14 20 14 20 14 23 C13.01 23 12.02 23 11 23 C9.16002803 19.54515902 7.32916118 16.0855752 5.5 12.625 C4.97535156 11.64015625 4.45070313 10.6553125 3.91015625 9.640625 C3.16572266 8.22910156 3.16572266 8.22910156 2.40625 6.7890625 C1.94541016 5.91975098 1.48457031 5.05043945 1.00976562 4.15478516 C0 2 0 2 0 0 Z " fill="#F0D4E8" transform="translate(933,2103)"/>
<path d="M0 0 C0.33 0 0.66 0 1 0 C1.99 10.56 2.98 21.12 4 32 C3.01 32 2.02 32 1 32 C-0.39315424 21.37719894 -0.09675083 10.68873373 0 0 Z " fill="#FEDBA8" transform="translate(796,1993)"/>
<path d="M0 0 C0.33 0.66 0.66 1.32 1 2 C-0.4270233 5.97985127 -2.36296476 9.75129936 -4.1875 13.5625 C-4.68314453 14.64208984 -5.17878906 15.72167969 -5.68945312 16.83398438 C-6.17736328 17.85943359 -6.66527344 18.88488281 -7.16796875 19.94140625 C-7.61422607 20.88701416 -8.0604834 21.83262207 -8.52026367 22.80688477 C-10 25 -10 25 -12.17700195 25.81616211 C-12.77859131 25.87682861 -13.38018066 25.93749512 -14 26 C-12.65788025 22.444218 -11.07755303 19.20894833 -9.1796875 15.91796875 C-8.64472656 14.98662109 -8.10976562 14.05527344 -7.55859375 13.09570312 C-7.00300781 12.13599609 -6.44742188 11.17628906 -5.875 10.1875 C-5.31167969 9.20845703 -4.74835937 8.22941406 -4.16796875 7.22070312 C-2.78155585 4.81210445 -1.39214945 2.40528605 0 0 Z " fill="#3980DD" transform="translate(2534,1880)"/>
<path d="M0 0 C0 4.66833108 -2.70466881 7.7219203 -5.1875 11.5625 C-5.67025391 12.34302734 -6.15300781 13.12355469 -6.65039062 13.92773438 C-11.14951312 20.92704038 -11.14951312 20.92704038 -16 22 C-14.29905127 18.09164029 -11.73558567 14.89232866 -9.125 11.5625 C-8.69058594 11.00240234 -8.25617188 10.44230469 -7.80859375 9.86523438 C-5.23483552 6.55335629 -2.62767922 3.26932182 0 0 Z " fill="#F772AD" transform="translate(1049,1444)"/>
<path d="M0 0 C0.66 0.33 1.32 0.66 2 1 C-1.3 7.93 -4.6 14.86 -8 22 C-9.13682674 18.58951979 -8.8906164 18.01667343 -7.63671875 14.8046875 C-7.32669922 14.00675781 -7.01667969 13.20882813 -6.69726562 12.38671875 C-6.19743164 11.14341797 -6.19743164 11.14341797 -5.6875 9.875 C-5.36587891 9.03839844 -5.04425781 8.20179687 -4.71289062 7.33984375 C-2.26269876 1.13134938 -2.26269876 1.13134938 0 0 Z " fill="#EB88BF" transform="translate(921,1665)"/>
<path d="M0 0 C0.66 0.33 1.32 0.66 2 1 C-2.69834783 5.91801085 -7.33507533 10.22338356 -13 14 C-12.79125788 10.20897378 -12.15469977 9.13960711 -9.27734375 6.54296875 C-8.17417481 5.7436667 -7.06043048 4.95879282 -5.9375 4.1875 C-5.36966797 3.78080078 -4.80183594 3.37410156 -4.21679688 2.95507812 C-2.82011523 1.95744838 -1.41120009 0.97698467 0 0 Z " fill="#FE9230" transform="translate(2419,2433)"/>
<path d="M0 0 C0.66 0.33 1.32 0.66 2 1 C-2.29 6.61 -6.58 12.22 -11 18 C-11 14.05114237 -9.22093996 11.67462245 -7.1875 8.4375 C-6.83107422 7.84775391 -6.47464844 7.25800781 -6.10742188 6.65039062 C-4.26424274 3.67763014 -2.95384361 1.96922907 0 0 Z " fill="#FE8D26" transform="translate(2090,1791)"/>
<path d="M0 0 C1.36420006 4.09260018 -0.2335485 6.47012659 -1.9375 10.1875 C-2.22818359 10.84169922 -2.51886719 11.49589844 -2.81835938 12.16992188 C-3.53695343 13.78381344 -4.2673588 15.39243655 -5 17 C-5.99 17 -6.98 17 -8 17 C-6.3341708 10.83643195 -3.12194714 5.51740344 0 0 Z " fill="#5AD1ED" transform="translate(934,1643)"/>
<path d="M0 0 C5.26198365 4.89908823 7.29364886 8.79521835 8 16 C5.70351643 13.10414095 3.95652443 10.1827969 2.3125 6.875 C1.65701172 5.57175781 1.65701172 5.57175781 0.98828125 4.2421875 C0 2 0 2 0 0 Z " fill="#CDDBED" transform="translate(933,2103)"/>
<path d="M0 0 C5.02692063 0.45699278 8.14896261 2.99241748 12 6 C11.01 6.495 11.01 6.495 10 7 C7.6171875 6.00390625 7.6171875 6.00390625 4.875 4.5625 C3.96492188 4.08941406 3.05484375 3.61632813 2.1171875 3.12890625 C1.41851563 2.75636719 0.71984375 2.38382813 0 2 C0 1.34 0 0.68 0 0 Z " fill="#FE993B" transform="translate(1228,2076)"/>
<path d="M0 0 C0.33 0.99 0.66 1.98 1 3 C-0.78346291 6.03188696 -1.59575156 6.86525052 -5 8 C-3.8141763 4.62496331 -2.72426311 2.35277269 0 0 Z " fill="#0F65D6" transform="translate(2525,1898)"/>
<path d="M0 0 C0.33 0.99 0.66 1.98 1 3 C-0.21484375 5.04296875 -0.21484375 5.04296875 -1.9375 7.1875 C-2.50339844 7.90292969 -3.06929687 8.61835937 -3.65234375 9.35546875 C-4.09707031 9.89816406 -4.54179687 10.44085937 -5 11 C-5 7.58678765 -4.33132534 6.60527115 -2.5 3.8125 C-2.0359375 3.09707031 -1.571875 2.38164063 -1.09375 1.64453125 C-0.7328125 1.10183594 -0.371875 0.55914063 0 0 Z " fill="#FE993E" transform="translate(2084,1798)"/>
<path d="M0 0 C0.66 0.33 1.32 0.66 2 1 C0.68 3.64 -0.64 6.28 -2 9 C-2.33 9 -2.66 9 -3 9 C-2.4140625 2.84765625 -2.4140625 2.84765625 -2 1 C-1.34 0.67 -0.68 0.34 0 0 Z " fill="#F171B2" transform="translate(921,1665)"/>
</svg>
